<?xml version="1.0" encoding="UTF-8" standalone="no"?>
<!DOCTYPE svg PUBLIC "-//W3C//DTD SVG 1.1//EN"
 "http://www.w3.org/Graphics/SVG/1.1/DTD/svg11.dtd">
<!-- Generated by graphviz version 2.28.0 (20171202.0115)
 -->
<!-- Title: dag Pages: 1 -->
<svg width="1459pt" height="786pt"
 viewBox="0.00 0.00 1459.00 786.00" xmlns="http://www.w3.org/2000/svg" xmlns:xlink="http://www.w3.org/1999/xlink">
<g id="graph1" class="graph" transform="scale(1 1) rotate(0) translate(4 782)">
<title>dag</title>
<polygon fill="white" stroke="white" points="-4,5 -4,-782 1456,-782 1456,5 -4,5"/>
<!-- p0 -->
<g id="node1" class="node"><title>p0</title>
<ellipse fill="black" stroke="black" cx="747" cy="-774" rx="3.6" ry="3.6"/>
<text text-anchor="middle" x="1578" y="-770.3" font-family="Times,serif" font-size="14.00">Channel.fromPath</text>
</g>
<!-- p1 -->
<g id="node2" class="node"><title>p1</title>
<ellipse fill="none" stroke="black" cx="747" cy="-700" rx="172.327" ry="18"/>
<text text-anchor="middle" x="747" y="-696.3" font-family="Times,serif" font-size="14.00">modelAndMaskGenome_wf:checksum_input</text>
</g>
<!-- p0&#45;&gt;p1 -->
<g id="edge2" class="edge"><title>p0&#45;&gt;p1</title>
<path fill="none" stroke="black" d="M747,-770.265C747,-763.354 747,-744.578 747,-728.316"/>
<polygon fill="black" stroke="black" points="750.5,-728.143 747,-718.143 743.5,-728.143 750.5,-728.143"/>
<text text-anchor="middle" x="768.5" y="-740.3" font-family="Times,serif" font-size="14.00">genome</text>
</g>
<!-- p3 -->
<g id="node4" class="node"><title>p3</title>
<ellipse fill="none" stroke="black" cx="735" cy="-640" rx="3.25" ry="3.5"/>
<text text-anchor="middle" x="1007.5" y="-636.3" font-family="Times,serif" font-size="14.00">map</text>
</g>
<!-- p1&#45;&gt;p3 -->
<g id="edge4" class="edge"><title>p1&#45;&gt;p3</title>
<path fill="none" stroke="black" d="M743.465,-681.912C741.591,-672.858 739.33,-661.93 737.617,-653.647"/>
<polygon fill="black" stroke="black" points="741.01,-652.774 735.557,-643.691 734.155,-654.193 741.01,-652.774"/>
</g>
<!-- p2 -->
<g id="node6" class="node"><title>p2</title>
<ellipse fill="black" stroke="black" cx="760" cy="-640" rx="1.8" ry="1.8"/>
</g>
<!-- p1&#45;&gt;p2 -->
<g id="edge6" class="edge"><title>p1&#45;&gt;p2</title>
<path fill="none" stroke="black" d="M750.83,-681.912C753.006,-672.205 755.665,-660.342 757.558,-651.896"/>
<polygon fill="black" stroke="black" points="760.991,-652.58 759.763,-642.056 754.161,-651.049 760.991,-652.58"/>
</g>
<!-- p4 -->
<g id="node8" class="node"><title>p4</title>
<ellipse fill="none" stroke="black" cx="1010" cy="-566" rx="225.295" ry="18"/>
<text text-anchor="middle" x="1010" y="-562.3" font-family="Times,serif" font-size="14.00">modelAndMaskGenome_wf:RepeatModeler_BuildDatabase</text>
</g>
<!-- p3&#45;&gt;p4 -->
<g id="edge8" class="edge"><title>p3&#45;&gt;p4</title>
<path fill="none" stroke="black" d="M738.088,-638.191C757.487,-633.113 864.072,-605.207 937.886,-585.881"/>
<polygon fill="black" stroke="black" points="938.832,-589.251 947.62,-583.332 937.059,-582.479 938.832,-589.251"/>
<text text-anchor="middle" x="917" y="-606.3" font-family="Times,serif" font-size="14.00">cached_genome</text>
</g>
<!-- p14 -->
<g id="node26" class="node"><title>p14</title>
<ellipse fill="none" stroke="black" cx="217" cy="-566" rx="3.25" ry="3.5"/>
<text text-anchor="middle" x="-495.5" y="-562.3" font-family="Times,serif" font-size="14.00">combine</text>
</g>
<!-- p3&#45;&gt;p14 -->
<g id="edge30" class="edge"><title>p3&#45;&gt;p14</title>
<path fill="none" stroke="black" d="M731.744,-638.855C710.163,-637.867 585.549,-631.752 485,-618 385.924,-604.449 267.98,-578.56 229.681,-569.902"/>
<polygon fill="black" stroke="black" points="230.416,-566.48 219.888,-567.669 228.86,-573.305 230.416,-566.48"/>
<text text-anchor="middle" x="529" y="-606.3" font-family="Times,serif" font-size="14.00">cached_genome</text>
</g>
<!-- p16 -->
<g id="node35" class="node"><title>p16</title>
<ellipse fill="none" stroke="black" cx="506" cy="-512" rx="213.247" ry="18"/>
<text text-anchor="middle" x="506" y="-508.3" font-family="Times,serif" font-size="14.00">modelAndMaskGenome_wf:RepeatMasker_simple_exec</text>
</g>
<!-- p3&#45;&gt;p16 -->
<g id="edge36" class="edge"><title>p3&#45;&gt;p16</title>
<path fill="none" stroke="black" d="M731.644,-638.891C718.418,-638.344 668.868,-635.192 633,-618 591.564,-598.14 552.13,-561.868 528.497,-537.596"/>
<polygon fill="black" stroke="black" points="530.838,-534.98 521.396,-530.173 525.779,-539.819 530.838,-534.98"/>
<text text-anchor="middle" x="677" y="-606.3" font-family="Times,serif" font-size="14.00">cached_genome</text>
</g>
<!-- p20 -->
<g id="node42" class="node"><title>p20</title>
<ellipse fill="none" stroke="black" cx="735" cy="-134" rx="157.404" ry="18"/>
<text text-anchor="middle" x="735" y="-130.3" font-family="Times,serif" font-size="14.00">modelAndMaskGenome_wf:tidy_to_gff3</text>
</g>
<!-- p3&#45;&gt;p20 -->
<g id="edge46" class="edge"><title>p3&#45;&gt;p20</title>
<path fill="none" stroke="black" d="M735,-636.253C735,-626.695 735,-594 735,-567 735,-567 735,-567 735,-207 735,-192.205 735,-175.7 735,-162.229"/>
<polygon fill="black" stroke="black" points="738.5,-162.166 735,-152.166 731.5,-162.166 738.5,-162.166"/>
<text text-anchor="middle" x="779" y="-380.3" font-family="Times,serif" font-size="14.00">cached_genome</text>
</g>
<!-- p21 -->
<g id="node45" class="node"><title>p21</title>
<ellipse fill="none" stroke="black" cx="1200" cy="-60" rx="151.155" ry="18"/>
<text text-anchor="middle" x="1200" y="-56.3" font-family="Times,serif" font-size="14.00">modelAndMaskGenome_wf:soft_mask</text>
</g>
<!-- p3&#45;&gt;p21 -->
<g id="edge50" class="edge"><title>p3&#45;&gt;p21</title>
<path fill="none" stroke="black" d="M738.204,-638.191C741.028,-637.508 745.263,-636.554 749,-636 844.292,-621.879 869.17,-627.828 965,-618 1089.27,-605.255 1120.16,-600.389 1244,-584 1296.96,-576.99 1363,-620.426 1363,-567 1363,-567 1363,-567 1363,-133 1363,-104.233 1341.49,-86.8644 1314.1,-76.4095"/>
<polygon fill="black" stroke="black" points="1315.21,-73.0878 1304.61,-73.1225 1312.92,-79.7024 1315.21,-73.0878"/>
<text text-anchor="middle" x="1407" y="-336.3" font-family="Times,serif" font-size="14.00">cached_genome</text>
</g>
<!-- p5 -->
<g id="node10" class="node"><title>p5</title>
<ellipse fill="none" stroke="black" cx="1010" cy="-458" rx="246.467" ry="18"/>
<text text-anchor="middle" x="1010" y="-454.3" font-family="Times,serif" font-size="14.00">modelAndMaskGenome_wf:RepeatModeler_modelRepeatLibrary</text>
</g>
<!-- p4&#45;&gt;p5 -->
<g id="edge10" class="edge"><title>p4&#45;&gt;p5</title>
<path fill="none" stroke="black" d="M1004.89,-547.969C1003.06,-531.378 1002.76,-505.883 1004,-486.431"/>
<polygon fill="black" stroke="black" points="1007.5,-486.599 1004.85,-476.341 1000.53,-486.012 1007.5,-486.599"/>
</g>
<!-- p4&#45;&gt;p5 -->
<g id="edge12" class="edge"><title>p4&#45;&gt;p5</title>
<path fill="none" stroke="black" d="M1015.11,-547.969C1016.94,-531.378 1017.24,-505.883 1016,-486.431"/>
<polygon fill="black" stroke="black" points="1019.47,-486.012 1015.15,-476.341 1012.5,-486.599 1019.47,-486.012"/>
</g>
<!-- p10 -->
<g id="node13" class="node"><title>p10</title>
<ellipse fill="none" stroke="black" cx="866" cy="-384" rx="3.25" ry="3.5"/>
<text text-anchor="middle" x="581.5" y="-380.3" font-family="Times,serif" font-size="14.00">splitFasta</text>
</g>
<!-- p5&#45;&gt;p10 -->
<g id="edge14" class="edge"><title>p5&#45;&gt;p10</title>
<path fill="none" stroke="black" d="M950.966,-440.399C926.681,-431.631 899.312,-419.075 878,-402 876.139,-400.509 874.44,-398.657 872.943,-396.729"/>
<polygon fill="black" stroke="black" points="875.608,-394.39 867.329,-387.778 869.678,-398.109 875.608,-394.39"/>
</g>
<!-- p7 -->
<g id="node15" class="node"><title>p7</title>
<ellipse fill="none" stroke="black" cx="1111" cy="-384" rx="223.37" ry="18"/>
<text text-anchor="middle" x="1111" y="-380.3" font-family="Times,serif" font-size="14.00">modelAndMaskGenome_wf:rename_stockholm_record_ids</text>
</g>
<!-- p5&#45;&gt;p7 -->
<g id="edge16" class="edge"><title>p5&#45;&gt;p7</title>
<path fill="none" stroke="black" d="M1033.94,-439.937C1047.39,-430.343 1064.37,-418.24 1078.96,-407.837"/>
<polygon fill="black" stroke="black" points="1081.13,-410.595 1087.24,-401.941 1077.06,-404.895 1081.13,-410.595"/>
</g>
<!-- p6 -->
<g id="node17" class="node"><title>p6</title>
<ellipse fill="black" stroke="black" cx="843" cy="-384" rx="1.8" ry="1.8"/>
</g>
<!-- p5&#45;&gt;p6 -->
<g id="edge18" class="edge"><title>p5&#45;&gt;p6</title>
<path fill="none" stroke="black" d="M928.607,-440.877C902.298,-432.611 874.421,-420.278 853,-402 850.884,-400.194 849.103,-397.822 847.659,-395.425"/>
<polygon fill="black" stroke="black" points="850.717,-393.697 843.351,-386.081 844.36,-396.628 850.717,-393.697"/>
</g>
<!-- p11 -->
<g id="node23" class="node"><title>p11</title>
<ellipse fill="black" stroke="black" cx="866" cy="-296" rx="1.8" ry="1.8"/>
</g>
<!-- p10&#45;&gt;p11 -->
<g id="edge24" class="edge"><title>p10&#45;&gt;p11</title>
<path fill="none" stroke="black" d="M866,-380.139C866,-368.975 866,-327.985 866,-308.043"/>
<polygon fill="black" stroke="black" points="869.5,-307.969 866,-297.97 862.5,-307.97 869.5,-307.969"/>
<text text-anchor="middle" x="912" y="-336.3" font-family="Times,serif" font-size="14.00">splitLibraryFasta</text>
</g>
<!-- p8 -->
<g id="node19" class="node"><title>p8</title>
<ellipse fill="none" stroke="black" cx="1111" cy="-296" rx="213.247" ry="18"/>
<text text-anchor="middle" x="1111" y="-292.3" font-family="Times,serif" font-size="14.00">modelAndMaskGenome_wf:convert_stockholm_to_fasta</text>
</g>
<!-- p7&#45;&gt;p8 -->
<g id="edge20" class="edge"><title>p7&#45;&gt;p8</title>
<path fill="none" stroke="black" d="M1111,-365.597C1111,-353.746 1111,-337.817 1111,-324.292"/>
<polygon fill="black" stroke="black" points="1114.5,-324.084 1111,-314.084 1107.5,-324.084 1114.5,-324.084"/>
</g>
<!-- p9 -->
<g id="node21" class="node"><title>p9</title>
<ellipse fill="black" stroke="black" cx="1111" cy="-208" rx="1.8" ry="1.8"/>
</g>
<!-- p8&#45;&gt;p9 -->
<g id="edge22" class="edge"><title>p8&#45;&gt;p9</title>
<path fill="none" stroke="black" d="M1111,-277.597C1111,-260.516 1111,-234.965 1111,-220.348"/>
<polygon fill="black" stroke="black" points="1114.5,-220.095 1111,-210.095 1107.5,-220.095 1114.5,-220.095"/>
</g>
<!-- p12 -->
<g id="node25" class="node"><title>p12</title>
<ellipse fill="black" stroke="black" cx="205" cy="-640" rx="3.6" ry="3.6"/>
</g>
<!-- p12&#45;&gt;p14 -->
<g id="edge26" class="edge"><title>p12&#45;&gt;p14</title>
<path fill="none" stroke="black" d="M205.456,-636.265C206.985,-627.088 212.002,-596.99 214.894,-579.638"/>
<polygon fill="black" stroke="black" points="218.352,-580.177 216.544,-569.737 211.447,-579.026 218.352,-580.177"/>
</g>
<!-- p15 -->
<g id="node31" class="node"><title>p15</title>
<ellipse fill="none" stroke="black" cx="215" cy="-458" rx="215.172" ry="18"/>
<text text-anchor="middle" x="215" y="-454.3" font-family="Times,serif" font-size="14.00">modelAndMaskGenome_wf:RepeatMasker_parallel_exec</text>
</g>
<!-- p14&#45;&gt;p15 -->
<g id="edge32" class="edge"><title>p14&#45;&gt;p15</title>
<path fill="none" stroke="black" d="M214.091,-564.161C204.704,-561.276 175.18,-550.781 164,-530 156.419,-515.91 156.545,-508.157 164,-494 166.258,-489.712 169.304,-485.849 172.791,-482.393"/>
<polygon fill="black" stroke="black" points="175.111,-485.015 180.456,-475.867 170.573,-479.685 175.111,-485.015"/>
<text text-anchor="middle" x="223.5" y="-508.3" font-family="Times,serif" font-size="14.00">repeat_masker_tuples</text>
</g>
<!-- p13 -->
<g id="node28" class="node"><title>p13</title>
<ellipse fill="black" stroke="black" cx="230" cy="-640" rx="3.6" ry="3.6"/>
</g>
<!-- p13&#45;&gt;p14 -->
<g id="edge28" class="edge"><title>p13&#45;&gt;p14</title>
<path fill="none" stroke="black" d="M229.506,-636.265C227.849,-627.088 222.415,-596.99 219.282,-579.638"/>
<polygon fill="black" stroke="black" points="222.715,-578.956 217.494,-569.737 215.827,-580.2 222.715,-578.956"/>
</g>
<!-- p17 -->
<g id="node33" class="node"><title>p17</title>
<ellipse fill="none" stroke="black" cx="506" cy="-384" rx="3.25" ry="3.5"/>
<text text-anchor="middle" x="-1296.5" y="-380.3" font-family="Times,serif" font-size="14.00">mix</text>
</g>
<!-- p15&#45;&gt;p17 -->
<g id="edge34" class="edge"><title>p15&#45;&gt;p17</title>
<path fill="none" stroke="black" d="M280.306,-440.842C350.458,-423.485 456.78,-397.178 493.222,-388.162"/>
<polygon fill="black" stroke="black" points="494.157,-391.536 503.024,-385.736 492.476,-384.741 494.157,-391.536"/>
</g>
<!-- p18 -->
<g id="node38" class="node"><title>p18</title>
<ellipse fill="none" stroke="black" cx="518" cy="-296" rx="3.25" ry="3.5"/>
<text text-anchor="middle" x="-2067.5" y="-292.3" font-family="Times,serif" font-size="14.00">collectFile</text>
</g>
<!-- p17&#45;&gt;p18 -->
<g id="edge40" class="edge"><title>p17&#45;&gt;p18</title>
<path fill="none" stroke="black" d="M506.346,-380.519C507.785,-370.21 513.349,-330.336 516.237,-309.635"/>
<polygon fill="black" stroke="black" points="519.713,-310.047 517.629,-299.659 512.78,-309.08 519.713,-310.047"/>
</g>
<!-- p16&#45;&gt;p17 -->
<g id="edge38" class="edge"><title>p16&#45;&gt;p17</title>
<path fill="none" stroke="black" d="M506,-493.744C506,-468.053 506,-420.34 506,-397.637"/>
<polygon fill="black" stroke="black" points="509.5,-397.515 506,-387.515 502.5,-397.515 509.5,-397.515"/>
</g>
<!-- p19 -->
<g id="node40" class="node"><title>p19</title>
<ellipse fill="none" stroke="black" cx="525" cy="-208" rx="180.526" ry="18"/>
<text text-anchor="middle" x="525" y="-204.3" font-family="Times,serif" font-size="14.00">modelAndMaskGenome_wf:convert_out_to_gff</text>
</g>
<!-- p18&#45;&gt;p19 -->
<g id="edge42" class="edge"><title>p18&#45;&gt;p19</title>
<path fill="none" stroke="black" d="M518.233,-292.139C518.936,-283.502 521.092,-257.011 522.784,-236.227"/>
<polygon fill="black" stroke="black" points="526.293,-236.255 523.616,-226.004 519.316,-235.687 526.293,-236.255"/>
<text text-anchor="middle" x="556.5" y="-248.3" font-family="Times,serif" font-size="14.00">mergedOuts</text>
</g>
<!-- p19&#45;&gt;p20 -->
<g id="edge44" class="edge"><title>p19&#45;&gt;p20</title>
<path fill="none" stroke="black" d="M572.915,-190.572C604.205,-179.844 645.213,-165.784 678.152,-154.491"/>
<polygon fill="black" stroke="black" points="679.329,-157.787 687.653,-151.233 677.058,-151.166 679.329,-157.787"/>
</g>
<!-- p20&#45;&gt;p21 -->
<g id="edge48" class="edge"><title>p20&#45;&gt;p21</title>
<path fill="none" stroke="black" d="M824.381,-119.16C903.775,-106.867 1019.61,-88.9313 1101.62,-76.2336"/>
<polygon fill="black" stroke="black" points="1102.35,-79.6619 1111.7,-74.6729 1101.28,-72.7443 1102.35,-79.6619"/>
</g>
<!-- p22 -->
<g id="node48" class="node"><title>p22</title>
<ellipse fill="black" stroke="black" cx="1200" cy="-2" rx="1.8" ry="1.8"/>
</g>
<!-- p21&#45;&gt;p22 -->
<g id="edge52" class="edge"><title>p21&#45;&gt;p22</title>
<path fill="none" stroke="black" d="M1200,-41.8939C1200,-32.8876 1200,-22.0999 1200,-14.1727"/>
<polygon fill="black" stroke="black" points="1203.5,-13.9957 1200,-3.99575 1196.5,-13.9958 1203.5,-13.9957"/>
</g>
</g>
</svg>
