<?xml version="1.0" encoding="UTF-8" standalone="no"?>
<!DOCTYPE svg PUBLIC "-//W3C//DTD SVG 1.1//EN"
 "http://www.w3.org/Graphics/SVG/1.1/DTD/svg11.dtd">
<!-- Generated by graphviz version 2.42.3 (20191010.1750)
 -->
<!-- Title: dag Pages: 1 -->
<svg width="1804pt" height="790pt"
 viewBox="0.00 0.00 1804.08 790.00" xmlns="http://www.w3.org/2000/svg" xmlns:xlink="http://www.w3.org/1999/xlink">
<g id="graph0" class="graph" transform="scale(1 1) rotate(0) translate(4 786)">
<title>dag</title>
<polygon fill="white" stroke="transparent" points="-4,4 -4,-786 1800.08,-786 1800.08,4 -4,4"/>
<!-- p0 -->
<g id="node1" class="node">
<title>p0</title>
<ellipse fill="black" stroke="black" cx="749.08" cy="-763.4" rx="3.6" ry="3.6"/>
<text text-anchor="middle" x="695.48" y="-770.8" font-family="Times,serif" font-size="14.00">Channel.fromPath</text>
</g>
<!-- p1 -->
<g id="node2" class="node">
<title>p1</title>
<ellipse fill="none" stroke="black" cx="749.08" cy="-690.8" rx="172.77" ry="18"/>
<text text-anchor="middle" x="749.08" y="-687.1" font-family="Times,serif" font-size="14.00">modelAndMaskGenome_wf:checksum_input</text>
</g>
<!-- p0&#45;&gt;p1 -->
<g id="edge1" class="edge">
<title>p0&#45;&gt;p1</title>
<path fill="none" stroke="black" d="M749.08,-759.72C749.08,-753.05 749.08,-735.1 749.08,-719.33"/>
<polygon fill="black" stroke="black" points="752.58,-718.93 749.08,-708.93 745.58,-718.93 752.58,-718.93"/>
<text text-anchor="middle" x="771.08" y="-730.6" font-family="Times,serif" font-size="14.00">genome</text>
</g>
<!-- p3 -->
<g id="node3" class="node">
<title>p3</title>
<ellipse fill="none" stroke="black" cx="737.08" cy="-632.2" rx="3.5" ry="3.5"/>
<text text-anchor="middle" x="721.08" y="-639.5" font-family="Times,serif" font-size="14.00">map</text>
</g>
<!-- p1&#45;&gt;p3 -->
<g id="edge2" class="edge">
<title>p1&#45;&gt;p3</title>
<path fill="none" stroke="black" d="M745.42,-672.51C743.57,-663.81 741.38,-653.46 739.7,-645.56"/>
<polygon fill="black" stroke="black" points="743.12,-644.82 737.62,-635.77 736.27,-646.27 743.12,-644.82"/>
</g>
<!-- p2 -->
<g id="node4" class="node">
<title>p2</title>
<ellipse fill="black" stroke="black" cx="762.08" cy="-632.2" rx="1.8" ry="1.8"/>
</g>
<!-- p1&#45;&gt;p2 -->
<g id="edge3" class="edge">
<title>p1&#45;&gt;p2</title>
<path fill="none" stroke="black" d="M753.05,-672.51C755.17,-663.29 757.71,-652.23 759.56,-644.19"/>
<polygon fill="black" stroke="black" points="763.02,-644.74 761.85,-634.21 756.2,-643.17 763.02,-644.74"/>
</g>
<!-- p4 -->
<g id="node5" class="node">
<title>p4</title>
<ellipse fill="none" stroke="black" cx="1019.08" cy="-559.6" rx="225.56" ry="18"/>
<text text-anchor="middle" x="1019.08" y="-555.9" font-family="Times,serif" font-size="14.00">modelAndMaskGenome_wf:RepeatModeler_BuildDatabase</text>
</g>
<!-- p3&#45;&gt;p4 -->
<g id="edge4" class="edge">
<title>p3&#45;&gt;p4</title>
<path fill="none" stroke="black" d="M740.25,-630.41C760.05,-625.45 868.49,-598.3 944.14,-579.36"/>
<polygon fill="black" stroke="black" points="945.27,-582.69 954.12,-576.86 943.57,-575.9 945.27,-582.69"/>
<text text-anchor="middle" x="922.08" y="-599.4" font-family="Times,serif" font-size="14.00">cached_genome</text>
</g>
<!-- p15 -->
<g id="node15" class="node">
<title>p15</title>
<ellipse fill="none" stroke="black" cx="209.08" cy="-559.6" rx="3.5" ry="3.5"/>
<text text-anchor="middle" x="181.58" y="-566.9" font-family="Times,serif" font-size="14.00">combine</text>
</g>
<!-- p3&#45;&gt;p15 -->
<g id="edge15" class="edge">
<title>p3&#45;&gt;p15</title>
<path fill="none" stroke="black" d="M733.53,-631.04C711.08,-629.99 586.66,-623.77 486.08,-610.6 383.77,-597.2 261.79,-571.89 222.19,-563.43"/>
<polygon fill="black" stroke="black" points="222.87,-560 212.35,-561.32 221.39,-566.84 222.87,-560"/>
<text text-anchor="middle" x="530.08" y="-599.4" font-family="Times,serif" font-size="14.00">cached_genome</text>
</g>
<!-- p17 -->
<g id="node19" class="node">
<title>p17</title>
<ellipse fill="none" stroke="black" cx="508.08" cy="-505.6" rx="214.46" ry="18"/>
<text text-anchor="middle" x="508.08" y="-501.9" font-family="Times,serif" font-size="14.00">modelAndMaskGenome_wf:RepeatMasker_simple_exec</text>
</g>
<!-- p3&#45;&gt;p17 -->
<g id="edge19" class="edge">
<title>p3&#45;&gt;p17</title>
<path fill="none" stroke="black" d="M733.73,-631.1C720.51,-630.6 670.99,-627.63 635.08,-610.6 593.72,-590.99 554.27,-555.05 530.61,-530.99"/>
<polygon fill="black" stroke="black" points="532.97,-528.39 523.5,-523.63 527.93,-533.25 532.97,-528.39"/>
<text text-anchor="middle" x="679.08" y="-599.4" font-family="Times,serif" font-size="14.00">cached_genome</text>
</g>
<!-- p21 -->
<g id="node22" class="node">
<title>p21</title>
<ellipse fill="none" stroke="black" cx="737.08" cy="-131.6" rx="158.67" ry="18"/>
<text text-anchor="middle" x="737.08" y="-127.9" font-family="Times,serif" font-size="14.00">modelAndMaskGenome_wf:tidy_to_gff3</text>
</g>
<!-- p3&#45;&gt;p21 -->
<g id="edge24" class="edge">
<title>p3&#45;&gt;p21</title>
<path fill="none" stroke="black" d="M737.08,-628.51C737.08,-619.13 737.08,-587.08 737.08,-560.6 737.08,-560.6 737.08,-560.6 737.08,-203.6 737.08,-189.25 737.08,-173.27 737.08,-160.11"/>
<polygon fill="black" stroke="black" points="740.58,-159.82 737.08,-149.82 733.58,-159.82 740.58,-159.82"/>
<text text-anchor="middle" x="781.08" y="-374.9" font-family="Times,serif" font-size="14.00">cached_genome</text>
</g>
<!-- p22 -->
<g id="node23" class="node">
<title>p22</title>
<ellipse fill="none" stroke="black" cx="1222.08" cy="-58.6" rx="151.37" ry="18"/>
<text text-anchor="middle" x="1222.08" y="-54.9" font-family="Times,serif" font-size="14.00">modelAndMaskGenome_wf:soft_mask</text>
</g>
<!-- p3&#45;&gt;p22 -->
<g id="edge26" class="edge">
<title>p3&#45;&gt;p22</title>
<path fill="none" stroke="black" d="M740.29,-630.5C743.12,-629.9 747.35,-629.08 751.08,-628.6 803.95,-621.83 1708.08,-613.9 1708.08,-560.6 1708.08,-560.6 1708.08,-560.6 1708.08,-130.6 1708.08,-95.91 1511.73,-76.64 1368.64,-67.19"/>
<polygon fill="black" stroke="black" points="1368.63,-63.69 1358.43,-66.53 1368.18,-70.67 1368.63,-63.69"/>
<text text-anchor="middle" x="1752.08" y="-331.4" font-family="Times,serif" font-size="14.00">cached_genome</text>
</g>
<!-- p5 -->
<g id="node6" class="node">
<title>p5</title>
<ellipse fill="none" stroke="black" cx="1019.08" cy="-451.6" rx="246.96" ry="18"/>
<text text-anchor="middle" x="1019.08" y="-447.9" font-family="Times,serif" font-size="14.00">modelAndMaskGenome_wf:RepeatModeler_modelRepeatLibrary</text>
</g>
<!-- p4&#45;&gt;p5 -->
<g id="edge5" class="edge">
<title>p4&#45;&gt;p5</title>
<path fill="none" stroke="black" d="M1013.97,-541.57C1012.14,-524.98 1011.84,-499.48 1013.08,-480.03"/>
<polygon fill="black" stroke="black" points="1016.58,-480.2 1013.93,-469.94 1009.61,-479.61 1016.58,-480.2"/>
</g>
<!-- p4&#45;&gt;p5 -->
<g id="edge6" class="edge">
<title>p4&#45;&gt;p5</title>
<path fill="none" stroke="black" d="M1024.2,-541.57C1026.03,-524.98 1026.32,-499.48 1025.08,-480.03"/>
<polygon fill="black" stroke="black" points="1028.55,-479.61 1024.23,-469.94 1021.58,-480.2 1028.55,-479.61"/>
</g>
<!-- p10 -->
<g id="node7" class="node">
<title>p10</title>
<ellipse fill="none" stroke="black" cx="1040.08" cy="-378.6" rx="174.67" ry="18"/>
<text text-anchor="middle" x="1040.08" y="-374.9" font-family="Times,serif" font-size="14.00">modelAndMaskGenome_wf:splitLibraryFasta</text>
</g>
<!-- p5&#45;&gt;p10 -->
<g id="edge7" class="edge">
<title>p5&#45;&gt;p10</title>
<path fill="none" stroke="black" d="M1024.16,-433.41C1026.56,-425.3 1029.48,-415.44 1032.16,-406.38"/>
<polygon fill="black" stroke="black" points="1035.56,-407.21 1035.04,-396.63 1028.85,-405.23 1035.56,-407.21"/>
</g>
<!-- p7 -->
<g id="node8" class="node">
<title>p7</title>
<ellipse fill="none" stroke="black" cx="1456.08" cy="-378.6" rx="223.66" ry="18"/>
<text text-anchor="middle" x="1456.08" y="-374.9" font-family="Times,serif" font-size="14.00">modelAndMaskGenome_wf:rename_stockholm_record_ids</text>
</g>
<!-- p5&#45;&gt;p7 -->
<g id="edge8" class="edge">
<title>p5&#45;&gt;p7</title>
<path fill="none" stroke="black" d="M1115.25,-434.97C1185.22,-423.61 1279.87,-408.23 1351.67,-396.56"/>
<polygon fill="black" stroke="black" points="1352.34,-400 1361.65,-394.94 1351.21,-393.09 1352.34,-400"/>
</g>
<!-- p6 -->
<g id="node9" class="node">
<title>p6</title>
<ellipse fill="black" stroke="black" cx="845.08" cy="-378.6" rx="1.8" ry="1.8"/>
</g>
<!-- p5&#45;&gt;p6 -->
<g id="edge9" class="edge">
<title>p5&#45;&gt;p6</title>
<path fill="none" stroke="black" d="M935.45,-434.58C908.2,-426.45 879.07,-414.38 856.08,-396.6 853.73,-394.78 851.73,-392.31 850.11,-389.82"/>
<polygon fill="black" stroke="black" points="853.13,-388.03 845.49,-380.7 846.89,-391.2 853.13,-388.03"/>
</g>
<!-- p11 -->
<g id="node12" class="node">
<title>p11</title>
<ellipse fill="none" stroke="black" cx="1040.08" cy="-291.6" rx="3.5" ry="3.5"/>
<text text-anchor="middle" x="1019.08" y="-298.9" font-family="Times,serif" font-size="14.00">flatten</text>
</g>
<!-- p10&#45;&gt;p11 -->
<g id="edge12" class="edge">
<title>p10&#45;&gt;p11</title>
<path fill="none" stroke="black" d="M1040.08,-360.4C1040.08,-344.21 1040.08,-320.31 1040.08,-305.64"/>
<polygon fill="black" stroke="black" points="1043.58,-305.24 1040.08,-295.24 1036.58,-305.24 1043.58,-305.24"/>
</g>
<!-- p8 -->
<g id="node10" class="node">
<title>p8</title>
<ellipse fill="none" stroke="black" cx="1456.08" cy="-291.6" rx="214.46" ry="18"/>
<text text-anchor="middle" x="1456.08" y="-287.9" font-family="Times,serif" font-size="14.00">modelAndMaskGenome_wf:convert_stockholm_to_fasta</text>
</g>
<!-- p7&#45;&gt;p8 -->
<g id="edge10" class="edge">
<title>p7&#45;&gt;p8</title>
<path fill="none" stroke="black" d="M1456.08,-360.4C1456.08,-348.76 1456.08,-333.15 1456.08,-319.84"/>
<polygon fill="black" stroke="black" points="1459.58,-319.78 1456.08,-309.78 1452.58,-319.78 1459.58,-319.78"/>
</g>
<!-- p9 -->
<g id="node11" class="node">
<title>p9</title>
<ellipse fill="black" stroke="black" cx="1456.08" cy="-204.6" rx="1.8" ry="1.8"/>
</g>
<!-- p8&#45;&gt;p9 -->
<g id="edge11" class="edge">
<title>p8&#45;&gt;p9</title>
<path fill="none" stroke="black" d="M1456.08,-273.4C1456.08,-256.52 1456.08,-231.26 1456.08,-216.82"/>
<polygon fill="black" stroke="black" points="1459.58,-216.68 1456.08,-206.68 1452.58,-216.68 1459.58,-216.68"/>
</g>
<!-- p12 -->
<g id="node13" class="node">
<title>p12</title>
<ellipse fill="black" stroke="black" cx="1040.08" cy="-204.6" rx="1.8" ry="1.8"/>
</g>
<!-- p11&#45;&gt;p12 -->
<g id="edge13" class="edge">
<title>p11&#45;&gt;p12</title>
<path fill="none" stroke="black" d="M1040.08,-287.77C1040.08,-276.79 1040.08,-236.62 1040.08,-216.8"/>
<polygon fill="black" stroke="black" points="1043.58,-216.56 1040.08,-206.56 1036.58,-216.56 1043.58,-216.56"/>
</g>
<!-- p13 -->
<g id="node14" class="node">
<title>p13</title>
<ellipse fill="black" stroke="black" cx="197.08" cy="-632.2" rx="3.6" ry="3.6"/>
</g>
<!-- p13&#45;&gt;p15 -->
<g id="edge14" class="edge">
<title>p13&#45;&gt;p15</title>
<path fill="none" stroke="black" d="M197.54,-628.52C199.05,-619.61 203.99,-590.58 206.89,-573.49"/>
<polygon fill="black" stroke="black" points="210.4,-573.73 208.62,-563.28 203.5,-572.56 210.4,-573.73"/>
</g>
<!-- p16 -->
<g id="node17" class="node">
<title>p16</title>
<ellipse fill="none" stroke="black" cx="217.08" cy="-451.6" rx="217.16" ry="18"/>
<text text-anchor="middle" x="217.08" y="-447.9" font-family="Times,serif" font-size="14.00">modelAndMaskGenome_wf:RepeatMasker_parallel_exec</text>
</g>
<!-- p15&#45;&gt;p16 -->
<g id="edge17" class="edge">
<title>p15&#45;&gt;p16</title>
<path fill="none" stroke="black" d="M206.02,-557.28C197.69,-553.49 174.68,-541.68 166.08,-523.6 159.21,-509.15 158.63,-501.76 166.08,-487.6 168.34,-483.31 171.38,-479.45 174.87,-475.99"/>
<polygon fill="black" stroke="black" points="177.19,-478.61 182.54,-469.47 172.65,-473.29 177.19,-478.61"/>
<text text-anchor="middle" x="225.58" y="-501.9" font-family="Times,serif" font-size="14.00">repeat_masker_tuples</text>
</g>
<!-- p14 -->
<g id="node16" class="node">
<title>p14</title>
<ellipse fill="black" stroke="black" cx="222.08" cy="-632.2" rx="3.6" ry="3.6"/>
</g>
<!-- p14&#45;&gt;p15 -->
<g id="edge16" class="edge">
<title>p14&#45;&gt;p15</title>
<path fill="none" stroke="black" d="M221.59,-628.52C219.95,-619.61 214.6,-590.58 211.45,-573.49"/>
<polygon fill="black" stroke="black" points="214.83,-572.48 209.57,-563.28 207.94,-573.75 214.83,-572.48"/>
</g>
<!-- p18 -->
<g id="node18" class="node">
<title>p18</title>
<ellipse fill="none" stroke="black" cx="508.08" cy="-378.6" rx="3.5" ry="3.5"/>
<text text-anchor="middle" x="493.58" y="-385.9" font-family="Times,serif" font-size="14.00">mix</text>
</g>
<!-- p16&#45;&gt;p18 -->
<g id="edge18" class="edge">
<title>p16&#45;&gt;p18</title>
<path fill="none" stroke="black" d="M283.48,-434.4C353.4,-417.34 458.35,-391.73 494.94,-382.81"/>
<polygon fill="black" stroke="black" points="495.98,-386.16 504.86,-380.39 494.32,-379.36 495.98,-386.16"/>
</g>
<!-- p19 -->
<g id="node20" class="node">
<title>p19</title>
<ellipse fill="none" stroke="black" cx="519.08" cy="-291.6" rx="3.5" ry="3.5"/>
<text text-anchor="middle" x="486.58" y="-298.9" font-family="Times,serif" font-size="14.00">collectFile</text>
</g>
<!-- p18&#45;&gt;p19 -->
<g id="edge21" class="edge">
<title>p18&#45;&gt;p19</title>
<path fill="none" stroke="black" d="M508.45,-374.77C509.84,-364.04 514.83,-325.42 517.45,-305.18"/>
<polygon fill="black" stroke="black" points="520.93,-305.55 518.75,-295.18 513.99,-304.65 520.93,-305.55"/>
</g>
<!-- p17&#45;&gt;p18 -->
<g id="edge20" class="edge">
<title>p17&#45;&gt;p18</title>
<path fill="none" stroke="black" d="M508.08,-487.48C508.08,-462.22 508.08,-415.49 508.08,-392.74"/>
<polygon fill="black" stroke="black" points="511.58,-392.45 508.08,-382.45 504.58,-392.45 511.58,-392.45"/>
</g>
<!-- p20 -->
<g id="node21" class="node">
<title>p20</title>
<ellipse fill="none" stroke="black" cx="525.08" cy="-204.6" rx="182.77" ry="18"/>
<text text-anchor="middle" x="525.08" y="-200.9" font-family="Times,serif" font-size="14.00">modelAndMaskGenome_wf:convert_out_to_gff</text>
</g>
<!-- p19&#45;&gt;p20 -->
<g id="edge22" class="edge">
<title>p19&#45;&gt;p20</title>
<path fill="none" stroke="black" d="M519.28,-287.77C519.88,-279.28 521.71,-253.35 523.16,-232.87"/>
<polygon fill="black" stroke="black" points="526.66,-232.99 523.87,-222.77 519.67,-232.5 526.66,-232.99"/>
<text text-anchor="middle" x="556.58" y="-244.4" font-family="Times,serif" font-size="14.00">mergedOuts</text>
</g>
<!-- p20&#45;&gt;p21 -->
<g id="edge23" class="edge">
<title>p20&#45;&gt;p21</title>
<path fill="none" stroke="black" d="M573.98,-187.22C605.37,-176.71 646.27,-163.01 679.27,-151.96"/>
<polygon fill="black" stroke="black" points="680.42,-155.27 688.79,-148.77 678.2,-148.63 680.42,-155.27"/>
</g>
<!-- p21&#45;&gt;p22 -->
<g id="edge25" class="edge">
<title>p21&#45;&gt;p22</title>
<path fill="none" stroke="black" d="M830.02,-116.99C913.23,-104.81 1034.98,-86.99 1120.68,-74.44"/>
<polygon fill="black" stroke="black" points="1121.3,-77.89 1130.69,-72.98 1120.29,-70.96 1121.3,-77.89"/>
</g>
<!-- p23 -->
<g id="node24" class="node">
<title>p23</title>
<ellipse fill="black" stroke="black" cx="1222.08" cy="-1.8" rx="1.8" ry="1.8"/>
</g>
<!-- p22&#45;&gt;p23 -->
<g id="edge27" class="edge">
<title>p22&#45;&gt;p23</title>
<path fill="none" stroke="black" d="M1222.08,-40.56C1222.08,-31.87 1222.08,-21.56 1222.08,-13.9"/>
<polygon fill="black" stroke="black" points="1225.58,-13.76 1222.08,-3.76 1218.58,-13.76 1225.58,-13.76"/>
</g>
</g>
</svg>
