<?xml version="1.0" encoding="UTF-8" standalone="no"?>
<!DOCTYPE svg PUBLIC "-//W3C//DTD SVG 1.1//EN"
 "http://www.w3.org/Graphics/SVG/1.1/DTD/svg11.dtd">
<!-- Generated by graphviz version 2.42.3 (20191010.1750)
 -->
<!-- Title: dag Pages: 1 -->
<svg width="1394pt" height="959pt"
 viewBox="0.00 0.00 1394.47 958.80" xmlns="http://www.w3.org/2000/svg" xmlns:xlink="http://www.w3.org/1999/xlink">
<g id="graph0" class="graph" transform="scale(1 1) rotate(0) translate(4 954.8)">
<title>dag</title>
<polygon fill="white" stroke="transparent" points="-4,4 -4,-954.8 1390.47,-954.8 1390.47,4 -4,4"/>
<!-- p0 -->
<g id="node1" class="node">
<title>p0</title>
<ellipse fill="black" stroke="black" cx="975.3" cy="-933.2" rx="3.6" ry="3.6"/>
<text text-anchor="middle" x="920.57" y="-939.6" font-family="Times,serif" font-size="14.00">Channel.fromPath</text>
</g>
<!-- p1 -->
<g id="node2" class="node">
<title>p1</title>
<ellipse fill="none" stroke="black" cx="975.3" cy="-861.6" rx="171.45" ry="18"/>
<text text-anchor="middle" x="975.3" y="-857.4" font-family="Times,serif" font-size="14.00">modelAndMaskGenome_wf:checksum_input</text>
</g>
<!-- p0&#45;&gt;p1 -->
<g id="edge1" class="edge">
<title>p0&#45;&gt;p1</title>
<path fill="none" stroke="black" d="M975.3,-929.56C975.3,-923.02 975.3,-905.5 975.3,-890.03"/>
<polygon fill="black" stroke="black" points="978.8,-889.8 975.3,-879.8 971.8,-889.8 978.8,-889.8"/>
<text text-anchor="middle" x="997.46" y="-900.4" font-family="Times,serif" font-size="14.00">genome</text>
</g>
<!-- p3 -->
<g id="node3" class="node">
<title>p3</title>
<ellipse fill="none" stroke="black" cx="963.3" cy="-803.1" rx="3.5" ry="3.5"/>
<text text-anchor="middle" x="947.75" y="-809.4" font-family="Times,serif" font-size="14.00">map</text>
</g>
<!-- p1&#45;&gt;p3 -->
<g id="edge2" class="edge">
<title>p1&#45;&gt;p3</title>
<path fill="none" stroke="black" d="M971.63,-843.34C969.81,-834.76 967.64,-824.57 965.98,-816.72"/>
<polygon fill="black" stroke="black" points="969.34,-815.72 963.84,-806.66 962.5,-817.17 969.34,-815.72"/>
</g>
<!-- p2 -->
<g id="node4" class="node">
<title>p2</title>
<ellipse fill="black" stroke="black" cx="988.3" cy="-803.1" rx="1.8" ry="1.8"/>
</g>
<!-- p1&#45;&gt;p2 -->
<g id="edge3" class="edge">
<title>p1&#45;&gt;p2</title>
<path fill="none" stroke="black" d="M979.27,-843.34C981.39,-834.14 983.93,-823.1 985.77,-815.07"/>
<polygon fill="black" stroke="black" points="989.24,-815.63 988.07,-805.1 982.41,-814.07 989.24,-815.63"/>
</g>
<!-- p4 -->
<g id="node5" class="node">
<title>p4</title>
<ellipse fill="none" stroke="black" cx="454.3" cy="-731.6" rx="224.02" ry="18"/>
<text text-anchor="middle" x="454.3" y="-727.4" font-family="Times,serif" font-size="14.00">modelAndMaskGenome_wf:RepeatModeler_BuildDatabase</text>
</g>
<!-- p3&#45;&gt;p4 -->
<g id="edge4" class="edge">
<title>p3&#45;&gt;p4</title>
<path fill="none" stroke="black" d="M959.66,-802.16C933.01,-802.56 765.04,-804.03 631.13,-781.6 591.23,-774.92 547.42,-762.81 513.38,-752.3"/>
<polygon fill="black" stroke="black" points="514.19,-748.89 503.6,-749.25 512.1,-755.57 514.19,-748.89"/>
<text text-anchor="middle" x="676.38" y="-770.4" font-family="Times,serif" font-size="14.00">cached_genome</text>
</g>
<!-- p11 -->
<g id="node12" class="node">
<title>p11</title>
<ellipse fill="none" stroke="black" cx="727.3" cy="-464.6" rx="3.5" ry="3.5"/>
<text text-anchor="middle" x="699.69" y="-470.9" font-family="Times,serif" font-size="14.00">combine</text>
</g>
<!-- p3&#45;&gt;p11 -->
<g id="edge13" class="edge">
<title>p3&#45;&gt;p11</title>
<path fill="none" stroke="black" d="M959.72,-801.82C930.71,-799.45 735.3,-781.64 735.3,-732.6 735.3,-732.6 735.3,-732.6 735.3,-549.6 735.3,-524.17 731.62,-494.6 729.25,-478.2"/>
<polygon fill="black" stroke="black" points="732.69,-477.56 727.73,-468.2 725.77,-478.62 732.69,-477.56"/>
<text text-anchor="middle" x="780.38" y="-619.4" font-family="Times,serif" font-size="14.00">cached_genome</text>
</g>
<!-- p13 -->
<g id="node15" class="node">
<title>p13</title>
<ellipse fill="none" stroke="black" cx="963.3" cy="-677.6" rx="212.92" ry="18"/>
<text text-anchor="middle" x="963.3" y="-673.4" font-family="Times,serif" font-size="14.00">modelAndMaskGenome_wf:RepeatMasker_simple_exec</text>
</g>
<!-- p3&#45;&gt;p13 -->
<g id="edge16" class="edge">
<title>p3&#45;&gt;p13</title>
<path fill="none" stroke="black" d="M963.3,-799.52C963.3,-787.69 963.3,-737.87 963.3,-705.99"/>
<polygon fill="black" stroke="black" points="966.8,-705.94 963.3,-695.94 959.8,-705.94 966.8,-705.94"/>
<text text-anchor="middle" x="1008.38" y="-770.4" font-family="Times,serif" font-size="14.00">cached_genome</text>
</g>
<!-- p17 -->
<g id="node18" class="node">
<title>p17</title>
<ellipse fill="none" stroke="black" cx="1111.3" cy="-131.6" rx="157.14" ry="18"/>
<text text-anchor="middle" x="1111.3" y="-127.4" font-family="Times,serif" font-size="14.00">modelAndMaskGenome_wf:tidy_to_gff3</text>
</g>
<!-- p3&#45;&gt;p17 -->
<g id="edge21" class="edge">
<title>p3&#45;&gt;p17</title>
<path fill="none" stroke="black" d="M966.52,-801.48C994.23,-796.13 1191.3,-757.22 1191.3,-732.6 1191.3,-732.6 1191.3,-732.6 1191.3,-203.6 1191.3,-182.53 1175.59,-166.2 1158.09,-154.53"/>
<polygon fill="black" stroke="black" points="1159.77,-151.46 1149.42,-149.18 1156.1,-157.41 1159.77,-151.46"/>
<text text-anchor="middle" x="1236.38" y="-417.4" font-family="Times,serif" font-size="14.00">cached_genome</text>
</g>
<!-- p18 -->
<g id="node19" class="node">
<title>p18</title>
<ellipse fill="none" stroke="black" cx="1203.3" cy="-58.6" rx="149.73" ry="18"/>
<text text-anchor="middle" x="1203.3" y="-54.4" font-family="Times,serif" font-size="14.00">modelAndMaskGenome_wf:soft_mask</text>
</g>
<!-- p3&#45;&gt;p18 -->
<g id="edge23" class="edge">
<title>p3&#45;&gt;p18</title>
<path fill="none" stroke="black" d="M966.52,-801.49C969.35,-800.97 973.59,-800.2 977.3,-799.6 1032.27,-790.7 1046.67,-792.4 1101.3,-781.6 1188.96,-764.27 1296.3,-821.96 1296.3,-732.6 1296.3,-732.6 1296.3,-732.6 1296.3,-130.6 1296.3,-108.04 1278.79,-91.69 1258.97,-80.41"/>
<polygon fill="black" stroke="black" points="1260.55,-77.29 1250.07,-75.73 1257.29,-83.48 1260.55,-77.29"/>
<text text-anchor="middle" x="1341.38" y="-374.4" font-family="Times,serif" font-size="14.00">cached_genome</text>
</g>
<!-- p5 -->
<g id="node6" class="node">
<title>p5</title>
<ellipse fill="none" stroke="black" cx="454.3" cy="-623.6" rx="245.24" ry="18"/>
<text text-anchor="middle" x="454.3" y="-619.4" font-family="Times,serif" font-size="14.00">modelAndMaskGenome_wf:RepeatModeler_modelRepeatLibrary</text>
</g>
<!-- p4&#45;&gt;p5 -->
<g id="edge5" class="edge">
<title>p4&#45;&gt;p5</title>
<path fill="none" stroke="black" d="M449.18,-713.57C447.35,-696.98 447.06,-671.48 448.3,-652.03"/>
<polygon fill="black" stroke="black" points="451.8,-652.2 449.15,-641.94 444.82,-651.61 451.8,-652.2"/>
</g>
<!-- p4&#45;&gt;p5 -->
<g id="edge6" class="edge">
<title>p4&#45;&gt;p5</title>
<path fill="none" stroke="black" d="M459.41,-713.57C461.24,-696.98 461.54,-671.48 460.29,-652.03"/>
<polygon fill="black" stroke="black" points="463.77,-651.61 459.45,-641.94 456.8,-652.2 463.77,-651.61"/>
</g>
<!-- p10 -->
<g id="node7" class="node">
<title>p10</title>
<ellipse fill="none" stroke="black" cx="570.3" cy="-550.6" rx="3.5" ry="3.5"/>
<text text-anchor="middle" x="539.96" y="-556.9" font-family="Times,serif" font-size="14.00">splitFasta</text>
</g>
<!-- p5&#45;&gt;p10 -->
<g id="edge7" class="edge">
<title>p5&#45;&gt;p10</title>
<path fill="none" stroke="black" d="M482.08,-605.59C506.61,-590.58 541.14,-569.44 558.85,-558.61"/>
<polygon fill="black" stroke="black" points="560.92,-561.45 567.62,-553.24 557.26,-555.48 560.92,-561.45"/>
</g>
<!-- p7 -->
<g id="node8" class="node">
<title>p7</title>
<ellipse fill="none" stroke="black" cx="222.3" cy="-550.6" rx="222.1" ry="18"/>
<text text-anchor="middle" x="222.3" y="-546.4" font-family="Times,serif" font-size="14.00">modelAndMaskGenome_wf:rename_stockholm_record_ids</text>
</g>
<!-- p5&#45;&gt;p7 -->
<g id="edge8" class="edge">
<title>p5&#45;&gt;p7</title>
<path fill="none" stroke="black" d="M399.9,-605.95C365.87,-595.54 321.87,-582.07 286.18,-571.15"/>
<polygon fill="black" stroke="black" points="286.94,-567.72 276.35,-568.14 284.89,-574.42 286.94,-567.72"/>
</g>
<!-- p6 -->
<g id="node9" class="node">
<title>p6</title>
<ellipse fill="black" stroke="black" cx="464.3" cy="-550.6" rx="1.8" ry="1.8"/>
</g>
<!-- p5&#45;&gt;p6 -->
<g id="edge9" class="edge">
<title>p5&#45;&gt;p6</title>
<path fill="none" stroke="black" d="M456.72,-605.41C458.6,-592.02 461.16,-573.85 462.77,-562.42"/>
<polygon fill="black" stroke="black" points="466.25,-562.82 464.18,-552.43 459.32,-561.84 466.25,-562.82"/>
</g>
<!-- p10&#45;&gt;p11 -->
<g id="edge12" class="edge">
<title>p10&#45;&gt;p11</title>
<path fill="none" stroke="black" d="M572.18,-547.41C578.76,-539.85 601.7,-514.57 625.65,-500.6 655.02,-483.47 694.07,-472.99 714.15,-468.38"/>
<polygon fill="black" stroke="black" points="714.91,-471.79 723.94,-466.25 713.42,-464.95 714.91,-471.79"/>
<text text-anchor="middle" x="674.12" y="-503.4" font-family="Times,serif" font-size="14.00">splitLibraryFasta</text>
</g>
<!-- p8 -->
<g id="node10" class="node">
<title>p8</title>
<ellipse fill="none" stroke="black" cx="222.3" cy="-464.6" rx="213.43" ry="18"/>
<text text-anchor="middle" x="222.3" y="-460.4" font-family="Times,serif" font-size="14.00">modelAndMaskGenome_wf:convert_stockholm_to_fasta</text>
</g>
<!-- p7&#45;&gt;p8 -->
<g id="edge10" class="edge">
<title>p7&#45;&gt;p8</title>
<path fill="none" stroke="black" d="M222.3,-532.2C222.3,-520.86 222.3,-505.83 222.3,-492.92"/>
<polygon fill="black" stroke="black" points="225.8,-492.7 222.3,-482.7 218.8,-492.7 225.8,-492.7"/>
</g>
<!-- p9 -->
<g id="node11" class="node">
<title>p9</title>
<ellipse fill="black" stroke="black" cx="222.3" cy="-378.6" rx="1.8" ry="1.8"/>
</g>
<!-- p8&#45;&gt;p9 -->
<g id="edge11" class="edge">
<title>p8&#45;&gt;p9</title>
<path fill="none" stroke="black" d="M222.3,-446.2C222.3,-429.65 222.3,-405.23 222.3,-391.02"/>
<polygon fill="black" stroke="black" points="225.8,-390.66 222.3,-380.66 218.8,-390.66 225.8,-390.66"/>
</g>
<!-- p12 -->
<g id="node13" class="node">
<title>p12</title>
<ellipse fill="none" stroke="black" cx="727.3" cy="-378.6" rx="215.78" ry="18"/>
<text text-anchor="middle" x="727.3" y="-374.4" font-family="Times,serif" font-size="14.00">modelAndMaskGenome_wf:RepeatMasker_parallel_exec</text>
</g>
<!-- p11&#45;&gt;p12 -->
<g id="edge14" class="edge">
<title>p11&#45;&gt;p12</title>
<path fill="none" stroke="black" d="M727.3,-460.81C727.3,-452.5 727.3,-427.32 727.3,-407.17"/>
<polygon fill="black" stroke="black" points="730.8,-406.93 727.3,-396.93 723.8,-406.93 730.8,-406.93"/>
<text text-anchor="middle" x="788.33" y="-417.4" font-family="Times,serif" font-size="14.00">repeat_masker_tuples</text>
</g>
<!-- p14 -->
<g id="node14" class="node">
<title>p14</title>
<ellipse fill="none" stroke="black" cx="971.3" cy="-320.1" rx="3.5" ry="3.5"/>
<text text-anchor="middle" x="956.91" y="-326.4" font-family="Times,serif" font-size="14.00">mix</text>
</g>
<!-- p12&#45;&gt;p14 -->
<g id="edge15" class="edge">
<title>p12&#45;&gt;p14</title>
<path fill="none" stroke="black" d="M796.89,-361.48C853.09,-348.47 927.62,-331.21 957.78,-324.23"/>
<polygon fill="black" stroke="black" points="958.85,-327.58 967.8,-321.91 957.27,-320.76 958.85,-327.58"/>
</g>
<!-- p15 -->
<g id="node16" class="node">
<title>p15</title>
<ellipse fill="none" stroke="black" cx="981.3" cy="-276.1" rx="3.5" ry="3.5"/>
<text text-anchor="middle" x="948.25" y="-282.4" font-family="Times,serif" font-size="14.00">collectFile</text>
</g>
<!-- p14&#45;&gt;p15 -->
<g id="edge18" class="edge">
<title>p14&#45;&gt;p15</title>
<path fill="none" stroke="black" d="M971.95,-316.34C973.21,-311.07 976.03,-299.23 978.25,-289.92"/>
<polygon fill="black" stroke="black" points="981.72,-290.46 980.63,-279.92 974.91,-288.84 981.72,-290.46"/>
</g>
<!-- p13&#45;&gt;p14 -->
<g id="edge17" class="edge">
<title>p13&#45;&gt;p14</title>
<path fill="none" stroke="black" d="M965.74,-659.58C968.09,-641.7 971.3,-612.73 971.3,-587.6 971.3,-587.6 971.3,-587.6 971.3,-377.6 971.3,-362.65 971.3,-345.48 971.3,-334.03"/>
<polygon fill="black" stroke="black" points="974.8,-333.69 971.3,-323.69 967.8,-333.69 974.8,-333.69"/>
</g>
<!-- p16 -->
<g id="node17" class="node">
<title>p16</title>
<ellipse fill="none" stroke="black" cx="982.3" cy="-204.6" rx="181.26" ry="18"/>
<text text-anchor="middle" x="982.3" y="-200.4" font-family="Times,serif" font-size="14.00">modelAndMaskGenome_wf:convert_out_to_gff</text>
</g>
<!-- p15&#45;&gt;p16 -->
<g id="edge19" class="edge">
<title>p15&#45;&gt;p16</title>
<path fill="none" stroke="black" d="M981.34,-272.46C981.43,-265.93 981.68,-248.44 981.9,-232.99"/>
<polygon fill="black" stroke="black" points="985.41,-232.82 982.05,-222.77 978.41,-232.72 985.41,-232.82"/>
<text text-anchor="middle" x="1016.39" y="-243.4" font-family="Times,serif" font-size="14.00">mergedOuts</text>
</g>
<!-- p16&#45;&gt;p17 -->
<g id="edge20" class="edge">
<title>p16&#45;&gt;p17</title>
<path fill="none" stroke="black" d="M1012.87,-186.77C1030.54,-177.05 1052.96,-164.71 1071.94,-154.26"/>
<polygon fill="black" stroke="black" points="1073.87,-157.19 1080.95,-149.31 1070.5,-151.06 1073.87,-157.19"/>
</g>
<!-- p17&#45;&gt;p18 -->
<g id="edge22" class="edge">
<title>p17&#45;&gt;p18</title>
<path fill="none" stroke="black" d="M1133.57,-113.41C1145.43,-104.26 1160.2,-92.86 1173.09,-82.92"/>
<polygon fill="black" stroke="black" points="1175.45,-85.51 1181.23,-76.63 1171.18,-79.97 1175.45,-85.51"/>
</g>
<!-- p19 -->
<g id="node20" class="node">
<title>p19</title>
<ellipse fill="black" stroke="black" cx="1203.3" cy="-1.8" rx="1.8" ry="1.8"/>
</g>
<!-- p18&#45;&gt;p19 -->
<g id="edge24" class="edge">
<title>p18&#45;&gt;p19</title>
<path fill="none" stroke="black" d="M1203.3,-40.56C1203.3,-31.87 1203.3,-21.56 1203.3,-13.9"/>
<polygon fill="black" stroke="black" points="1206.8,-13.76 1203.3,-3.76 1199.8,-13.76 1206.8,-13.76"/>
</g>
</g>
</svg>
