<?xml version="1.0" encoding="UTF-8" standalone="no"?>
<!DOCTYPE svg PUBLIC "-//W3C//DTD SVG 1.1//EN"
 "http://www.w3.org/Graphics/SVG/1.1/DTD/svg11.dtd">
<!-- Generated by graphviz version 2.42.3 (20191010.1750)
 -->
<!-- Title: dag Pages: 1 -->
<svg width="749pt" height="1002pt"
 viewBox="0.00 0.00 748.69 1002.20" xmlns="http://www.w3.org/2000/svg" xmlns:xlink="http://www.w3.org/1999/xlink">
<g id="graph0" class="graph" transform="scale(1 1) rotate(0) translate(4 998.2)">
<title>dag</title>
<polygon fill="white" stroke="transparent" points="-4,4 -4,-998.2 744.69,-998.2 744.69,4 -4,4"/>
<!-- p0 -->
<g id="node1" class="node">
<title>p0</title>
<ellipse fill="black" stroke="black" cx="302.45" cy="-975.6" rx="3.6" ry="3.6"/>
<text text-anchor="middle" x="248.85" y="-983" font-family="Times,serif" font-size="14.00">Channel.fromPath</text>
</g>
<!-- p1 -->
<g id="node2" class="node">
<title>p1</title>
<ellipse fill="none" stroke="black" cx="302.45" cy="-903" rx="68.79" ry="18"/>
<text text-anchor="middle" x="302.45" y="-899.3" font-family="Times,serif" font-size="14.00">checksum_input</text>
</g>
<!-- p0&#45;&gt;p1 -->
<g id="edge1" class="edge">
<title>p0&#45;&gt;p1</title>
<path fill="none" stroke="black" d="M302.45,-971.92C302.45,-965.25 302.45,-947.3 302.45,-931.53"/>
<polygon fill="black" stroke="black" points="305.95,-931.13 302.45,-921.13 298.95,-931.13 305.95,-931.13"/>
<text text-anchor="middle" x="353.95" y="-942.8" font-family="Times,serif" font-size="14.00">genome_fasta_ch1</text>
</g>
<!-- p2 -->
<g id="node3" class="node">
<title>p2</title>
<ellipse fill="none" stroke="black" cx="302.45" cy="-816" rx="121.58" ry="18"/>
<text text-anchor="middle" x="302.45" y="-812.3" font-family="Times,serif" font-size="14.00">RepeatModeler_BuildDatabase</text>
</g>
<!-- p1&#45;&gt;p2 -->
<g id="edge2" class="edge">
<title>p1&#45;&gt;p2</title>
<path fill="none" stroke="black" d="M302.45,-884.8C302.45,-873.16 302.45,-857.55 302.45,-844.24"/>
<polygon fill="black" stroke="black" points="305.95,-844.18 302.45,-834.18 298.95,-844.18 305.95,-844.18"/>
<text text-anchor="middle" x="376.95" y="-855.8" font-family="Times,serif" font-size="14.00">checksummed_genome_ch</text>
</g>
<!-- p3 -->
<g id="node4" class="node">
<title>p3</title>
<ellipse fill="none" stroke="black" cx="193.45" cy="-555" rx="3.5" ry="3.5"/>
<text text-anchor="middle" x="178.95" y="-562.3" font-family="Times,serif" font-size="14.00">into</text>
</g>
<!-- p2&#45;&gt;p3 -->
<g id="edge3" class="edge">
<title>p2&#45;&gt;p3</title>
<path fill="none" stroke="black" d="M295.29,-798.01C274.77,-749.25 216.06,-609.73 198.48,-567.96"/>
<polygon fill="black" stroke="black" points="201.66,-566.49 194.55,-558.63 195.2,-569.2 201.66,-566.49"/>
<text text-anchor="middle" x="295.45" y="-681.8" font-family="Times,serif" font-size="14.00">cached_genome</text>
</g>
<!-- p4 -->
<g id="node5" class="node">
<title>p4</title>
<ellipse fill="none" stroke="black" cx="411.45" cy="-729" rx="96.68" ry="18"/>
<text text-anchor="middle" x="411.45" y="-725.3" font-family="Times,serif" font-size="14.00">RepeatModeler_execute</text>
</g>
<!-- p2&#45;&gt;p4 -->
<g id="edge4" class="edge">
<title>p2&#45;&gt;p4</title>
<path fill="none" stroke="black" d="M298.11,-797.65C296.56,-787.21 296.61,-774.2 303.45,-765 309.81,-756.43 318.32,-749.91 327.78,-744.97"/>
<polygon fill="black" stroke="black" points="329.47,-748.05 337.11,-740.7 326.56,-741.69 329.47,-748.05"/>
<text text-anchor="middle" x="346.45" y="-768.8" font-family="Times,serif" font-size="14.00">db_translate_ch</text>
</g>
<!-- p2&#45;&gt;p4 -->
<g id="edge5" class="edge">
<title>p2&#45;&gt;p4</title>
<path fill="none" stroke="black" d="M358.27,-799.99C369.58,-795.02 380.67,-788.49 389.45,-780 396.01,-773.65 400.75,-765 404.1,-756.68"/>
<polygon fill="black" stroke="black" points="407.41,-757.81 407.44,-747.22 400.81,-755.49 407.41,-757.81"/>
<text text-anchor="middle" x="438.95" y="-768.8" font-family="Times,serif" font-size="14.00">db_blastdb_ch</text>
</g>
<!-- p7 -->
<g id="node6" class="node">
<title>p7</title>
<ellipse fill="none" stroke="black" cx="437.45" cy="-482.5" rx="3.5" ry="3.5"/>
<text text-anchor="middle" x="409.95" y="-489.8" font-family="Times,serif" font-size="14.00">combine</text>
</g>
<!-- p3&#45;&gt;p7 -->
<g id="edge6" class="edge">
<title>p3&#45;&gt;p7</title>
<path fill="none" stroke="black" d="M196.75,-553.09C209.79,-549.45 258.86,-535.36 297.45,-519 310.81,-513.34 312.72,-508.7 326.45,-504 360.38,-492.38 402.54,-486.89 423.81,-484.71"/>
<polygon fill="black" stroke="black" points="424.27,-488.19 433.9,-483.77 423.62,-481.22 424.27,-488.19"/>
<text text-anchor="middle" x="377.95" y="-507.8" font-family="Times,serif" font-size="14.00">genome_fasta_ch2</text>
</g>
<!-- p13 -->
<g id="node7" class="node">
<title>p13</title>
<ellipse fill="none" stroke="black" cx="149.45" cy="-105" rx="54.69" ry="18"/>
<text text-anchor="middle" x="149.45" y="-101.3" font-family="Times,serif" font-size="14.00">tidy_to_gff3</text>
</g>
<!-- p3&#45;&gt;p13 -->
<g id="edge7" class="edge">
<title>p3&#45;&gt;p13</title>
<path fill="none" stroke="black" d="M191.08,-552.09C181.94,-544.49 149.45,-515.24 149.45,-483.5 149.45,-483.5 149.45,-483.5 149.45,-191 149.45,-171.75 149.45,-150.05 149.45,-133.4"/>
<polygon fill="black" stroke="black" points="152.95,-133.26 149.45,-123.26 145.95,-133.26 152.95,-133.26"/>
<text text-anchor="middle" x="200.95" y="-308.8" font-family="Times,serif" font-size="14.00">genome_fasta_ch3</text>
</g>
<!-- p9 -->
<g id="node8" class="node">
<title>p9</title>
<ellipse fill="none" stroke="black" cx="274.45" cy="-443" rx="110.48" ry="18"/>
<text text-anchor="middle" x="274.45" y="-439.3" font-family="Times,serif" font-size="14.00">RepeatMasker_simple_exec</text>
</g>
<!-- p3&#45;&gt;p9 -->
<g id="edge8" class="edge">
<title>p3&#45;&gt;p9</title>
<path fill="none" stroke="black" d="M192.46,-551.53C189.6,-543.92 182.01,-520.39 190.45,-504 198.81,-487.75 213.84,-474.92 228.9,-465.37"/>
<polygon fill="black" stroke="black" points="230.91,-468.25 237.72,-460.13 227.33,-462.23 230.91,-468.25"/>
<text text-anchor="middle" x="241.95" y="-507.8" font-family="Times,serif" font-size="14.00">genome_fasta_ch5</text>
</g>
<!-- p14 -->
<g id="node9" class="node">
<title>p14</title>
<ellipse fill="none" stroke="black" cx="47.45" cy="-18" rx="47.39" ry="18"/>
<text text-anchor="middle" x="47.45" y="-14.3" font-family="Times,serif" font-size="14.00">soft_mask</text>
</g>
<!-- p3&#45;&gt;p14 -->
<g id="edge9" class="edge">
<title>p3&#45;&gt;p14</title>
<path fill="none" stroke="black" d="M189.76,-554.13C165.64,-554.74 31.45,-554.97 31.45,-483.5 31.45,-483.5 31.45,-483.5 31.45,-104 31.45,-84.41 35.6,-62.72 39.67,-46.15"/>
<polygon fill="black" stroke="black" points="43.16,-46.64 42.3,-36.08 36.39,-44.88 43.16,-46.64"/>
<text text-anchor="middle" x="82.95" y="-275.8" font-family="Times,serif" font-size="14.00">genome_fasta_ch4</text>
</g>
<!-- p5 -->
<g id="node10" class="node">
<title>p5</title>
<ellipse fill="none" stroke="black" cx="411.45" cy="-642" rx="70.69" ry="18"/>
<text text-anchor="middle" x="411.45" y="-638.3" font-family="Times,serif" font-size="14.00">splitLibraryFasta</text>
</g>
<!-- p4&#45;&gt;p5 -->
<g id="edge10" class="edge">
<title>p4&#45;&gt;p5</title>
<path fill="none" stroke="black" d="M411.45,-710.8C411.45,-699.16 411.45,-683.55 411.45,-670.24"/>
<polygon fill="black" stroke="black" points="414.95,-670.18 411.45,-660.18 407.95,-670.18 414.95,-670.18"/>
<text text-anchor="middle" x="459.45" y="-681.8" font-family="Times,serif" font-size="14.00">repeat_library_ch</text>
</g>
<!-- p15 -->
<g id="node11" class="node">
<title>p15</title>
<ellipse fill="none" stroke="black" cx="620.45" cy="-642" rx="120.48" ry="18"/>
<text text-anchor="middle" x="620.45" y="-638.3" font-family="Times,serif" font-size="14.00">rename_stockholm_record_ids</text>
</g>
<!-- p4&#45;&gt;p15 -->
<g id="edge11" class="edge">
<title>p4&#45;&gt;p15</title>
<path fill="none" stroke="black" d="M457.08,-713.03C474.26,-707.14 493.88,-700.09 511.45,-693 533.61,-684.06 557.82,-673.08 577.78,-663.69"/>
<polygon fill="black" stroke="black" points="579.38,-666.81 586.92,-659.36 576.39,-660.48 579.38,-666.81"/>
<text text-anchor="middle" x="585.45" y="-681.8" font-family="Times,serif" font-size="14.00">repeat_msa_ch</text>
</g>
<!-- p8 -->
<g id="node13" class="node">
<title>p8</title>
<ellipse fill="none" stroke="black" cx="452.45" cy="-389" rx="113.18" ry="18"/>
<text text-anchor="middle" x="452.45" y="-385.3" font-family="Times,serif" font-size="14.00">RepeatMasker_parallel_exec</text>
</g>
<!-- p7&#45;&gt;p8 -->
<g id="edge14" class="edge">
<title>p7&#45;&gt;p8</title>
<path fill="none" stroke="black" d="M437.88,-478.86C439.35,-469.91 444.25,-439.98 447.97,-417.31"/>
<polygon fill="black" stroke="black" points="451.46,-417.63 449.63,-407.2 444.55,-416.5 451.46,-417.63"/>
<text text-anchor="middle" x="504.95" y="-439.3" font-family="Times,serif" font-size="14.00">repeat_masker_tuples</text>
</g>
<!-- p13&#45;&gt;p14 -->
<g id="edge20" class="edge">
<title>p13&#45;&gt;p14</title>
<path fill="none" stroke="black" d="M130.26,-88.01C114.35,-74.75 91.55,-55.75 73.9,-41.05"/>
<polygon fill="black" stroke="black" points="76.12,-38.34 66.2,-34.63 71.64,-43.72 76.12,-38.34"/>
<text text-anchor="middle" x="145.95" y="-57.8" font-family="Times,serif" font-size="14.00">repeats_gff_ch</text>
</g>
<!-- p10 -->
<g id="node14" class="node">
<title>p10</title>
<ellipse fill="none" stroke="black" cx="274.45" cy="-312.5" rx="3.5" ry="3.5"/>
<text text-anchor="middle" x="281.95" y="-319.8" font-family="Times,serif" font-size="14.00">mix</text>
</g>
<!-- p9&#45;&gt;p10 -->
<g id="edge16" class="edge">
<title>p9&#45;&gt;p10</title>
<path fill="none" stroke="black" d="M257.03,-424.91C252.73,-419.62 248.71,-413.46 246.45,-407 236.04,-377.34 255.42,-341.57 266.88,-324.12"/>
<polygon fill="black" stroke="black" points="269.8,-326.04 272.65,-315.84 264.06,-322.04 269.8,-326.04"/>
<text text-anchor="middle" x="288.45" y="-385.3" font-family="Times,serif" font-size="14.00">rm_simple_out</text>
</g>
<!-- p6 -->
<g id="node12" class="node">
<title>p6</title>
<ellipse fill="none" stroke="black" cx="430.45" cy="-555" rx="3.5" ry="3.5"/>
<text text-anchor="middle" x="409.45" y="-562.3" font-family="Times,serif" font-size="14.00">flatten</text>
</g>
<!-- p5&#45;&gt;p6 -->
<g id="edge12" class="edge">
<title>p5&#45;&gt;p6</title>
<path fill="none" stroke="black" d="M415.29,-623.8C418.95,-607.44 424.36,-583.22 427.63,-568.59"/>
<polygon fill="black" stroke="black" points="431.09,-569.16 429.86,-558.64 424.26,-567.64 431.09,-569.16"/>
<text text-anchor="middle" x="470.95" y="-594.8" font-family="Times,serif" font-size="14.00">library_fasta_split</text>
</g>
<!-- p16 -->
<g id="node17" class="node">
<title>p16</title>
<ellipse fill="none" stroke="black" cx="620.45" cy="-555" rx="110.48" ry="18"/>
<text text-anchor="middle" x="620.45" y="-551.3" font-family="Times,serif" font-size="14.00">convert_stockholm_to_fasta</text>
</g>
<!-- p15&#45;&gt;p16 -->
<g id="edge21" class="edge">
<title>p15&#45;&gt;p16</title>
<path fill="none" stroke="black" d="M620.45,-623.8C620.45,-612.16 620.45,-596.55 620.45,-583.24"/>
<polygon fill="black" stroke="black" points="623.95,-583.18 620.45,-573.18 616.95,-583.18 623.95,-583.18"/>
<text text-anchor="middle" x="676.45" y="-594.8" font-family="Times,serif" font-size="14.00">renamed_stockholm</text>
</g>
<!-- p6&#45;&gt;p7 -->
<g id="edge13" class="edge">
<title>p6&#45;&gt;p7</title>
<path fill="none" stroke="black" d="M430.71,-551.32C431.6,-542.42 434.47,-513.44 436.17,-496.37"/>
<polygon fill="black" stroke="black" points="439.67,-496.48 437.18,-486.18 432.71,-495.79 439.67,-496.48"/>
</g>
<!-- p8&#45;&gt;p10 -->
<g id="edge15" class="edge">
<title>p8&#45;&gt;p10</title>
<path fill="none" stroke="black" d="M414.26,-372.02C374.05,-355.19 313.02,-329.64 286.96,-318.74"/>
<polygon fill="black" stroke="black" points="288,-315.38 277.43,-314.75 285.3,-321.84 288,-315.38"/>
<text text-anchor="middle" x="408.45" y="-341.8" font-family="Times,serif" font-size="14.00">rm_chunk_out</text>
</g>
<!-- p11 -->
<g id="node15" class="node">
<title>p11</title>
<ellipse fill="none" stroke="black" cx="268.45" cy="-250.5" rx="3.5" ry="3.5"/>
<text text-anchor="middle" x="235.95" y="-257.8" font-family="Times,serif" font-size="14.00">collectFile</text>
</g>
<!-- p10&#45;&gt;p11 -->
<g id="edge17" class="edge">
<title>p10&#45;&gt;p11</title>
<path fill="none" stroke="black" d="M274.19,-308.92C273.42,-301.29 271.14,-278.43 269.69,-263.97"/>
<polygon fill="black" stroke="black" points="273.17,-263.6 268.7,-254 266.21,-264.3 273.17,-263.6"/>
<text text-anchor="middle" x="295.45" y="-275.8" font-family="Times,serif" font-size="14.00">rm_outs</text>
</g>
<!-- p12 -->
<g id="node16" class="node">
<title>p12</title>
<ellipse fill="none" stroke="black" cx="258.45" cy="-192" rx="78.79" ry="18"/>
<text text-anchor="middle" x="258.45" y="-188.3" font-family="Times,serif" font-size="14.00">convert_out_to_gff</text>
</g>
<!-- p11&#45;&gt;p12 -->
<g id="edge18" class="edge">
<title>p11&#45;&gt;p12</title>
<path fill="none" stroke="black" d="M267.96,-246.77C267.09,-241.83 265.15,-230.9 263.25,-220.17"/>
<polygon fill="black" stroke="black" points="266.67,-219.39 261.48,-210.15 259.78,-220.61 266.67,-219.39"/>
</g>
<!-- p12&#45;&gt;p13 -->
<g id="edge19" class="edge">
<title>p12&#45;&gt;p13</title>
<path fill="none" stroke="black" d="M237.43,-174.61C220.4,-161.33 196.25,-142.5 177.56,-127.92"/>
<polygon fill="black" stroke="black" points="179.7,-125.15 169.66,-121.76 175.39,-130.67 179.7,-125.15"/>
<text text-anchor="middle" x="265.95" y="-144.8" font-family="Times,serif" font-size="14.00">repeats_gff_tmp_ch</text>
</g>
</g>
</svg>
