<?xml version="1.0" encoding="UTF-8" standalone="no"?>
<!DOCTYPE svg PUBLIC "-//W3C//DTD SVG 1.1//EN"
 "http://www.w3.org/Graphics/SVG/1.1/DTD/svg11.dtd">
<!-- Generated by graphviz version 2.28.0 (20171202.0115)
 -->
<!-- Title: dag Pages: 1 -->
<svg width="1407pt" height="966pt"
 viewBox="0.00 0.00 1407.00 966.00" xmlns="http://www.w3.org/2000/svg" xmlns:xlink="http://www.w3.org/1999/xlink">
<g id="graph1" class="graph" transform="scale(1 1) rotate(0) translate(4 962)">
<title>dag</title>
<polygon fill="white" stroke="white" points="-4,5 -4,-962 1404,-962 1404,5 -4,5"/>
<!-- p0 -->
<g id="node1" class="node"><title>p0</title>
<ellipse fill="black" stroke="black" cx="980" cy="-954" rx="3.6" ry="3.6"/>
<text text-anchor="middle" x="1991" y="-950.3" font-family="Times,serif" font-size="14.00">Channel.fromPath</text>
</g>
<!-- p1 -->
<g id="node2" class="node"><title>p1</title>
<ellipse fill="none" stroke="black" cx="980" cy="-880" rx="172.327" ry="18"/>
<text text-anchor="middle" x="980" y="-876.3" font-family="Times,serif" font-size="14.00">modelAndMaskGenome_wf:checksum_input</text>
</g>
<!-- p0&#45;&gt;p1 -->
<g id="edge2" class="edge"><title>p0&#45;&gt;p1</title>
<path fill="none" stroke="black" d="M980,-950.265C980,-943.354 980,-924.578 980,-908.316"/>
<polygon fill="black" stroke="black" points="983.5,-908.143 980,-898.143 976.5,-908.143 983.5,-908.143"/>
<text text-anchor="middle" x="1001.5" y="-920.3" font-family="Times,serif" font-size="14.00">genome</text>
</g>
<!-- p3 -->
<g id="node4" class="node"><title>p3</title>
<ellipse fill="none" stroke="black" cx="968" cy="-820" rx="3.25" ry="3.5"/>
<text text-anchor="middle" x="1530.5" y="-816.3" font-family="Times,serif" font-size="14.00">map</text>
</g>
<!-- p1&#45;&gt;p3 -->
<g id="edge4" class="edge"><title>p1&#45;&gt;p3</title>
<path fill="none" stroke="black" d="M976.465,-861.912C974.591,-852.858 972.33,-841.93 970.617,-833.647"/>
<polygon fill="black" stroke="black" points="974.01,-832.774 968.557,-823.691 967.155,-834.193 974.01,-832.774"/>
</g>
<!-- p2 -->
<g id="node6" class="node"><title>p2</title>
<ellipse fill="black" stroke="black" cx="993" cy="-820" rx="1.8" ry="1.8"/>
</g>
<!-- p1&#45;&gt;p2 -->
<g id="edge6" class="edge"><title>p1&#45;&gt;p2</title>
<path fill="none" stroke="black" d="M983.83,-861.912C986.006,-852.205 988.665,-840.342 990.558,-831.896"/>
<polygon fill="black" stroke="black" points="993.991,-832.58 992.763,-822.056 987.161,-831.049 993.991,-832.58"/>
</g>
<!-- p4 -->
<g id="node8" class="node"><title>p4</title>
<ellipse fill="none" stroke="black" cx="456" cy="-746" rx="225.295" ry="18"/>
<text text-anchor="middle" x="456" y="-742.3" font-family="Times,serif" font-size="14.00">modelAndMaskGenome_wf:RepeatModeler_BuildDatabase</text>
</g>
<!-- p3&#45;&gt;p4 -->
<g id="edge8" class="edge"><title>p3&#45;&gt;p4</title>
<path fill="none" stroke="black" d="M964.708,-819.054C939.232,-819.418 770.955,-820.857 637,-798 595.229,-790.873 549.286,-777.862 514.139,-766.767"/>
<polygon fill="black" stroke="black" points="515.116,-763.404 504.525,-763.694 512.985,-770.072 515.116,-763.404"/>
<text text-anchor="middle" x="681" y="-786.3" font-family="Times,serif" font-size="14.00">cached_genome</text>
</g>
<!-- p11 -->
<g id="node23" class="node"><title>p11</title>
<ellipse fill="none" stroke="black" cx="731" cy="-476" rx="3.25" ry="3.5"/>
<text text-anchor="middle" x="33.5" y="-472.3" font-family="Times,serif" font-size="14.00">combine</text>
</g>
<!-- p3&#45;&gt;p11 -->
<g id="edge26" class="edge"><title>p3&#45;&gt;p11</title>
<path fill="none" stroke="black" d="M964.763,-818.718C936.929,-816.205 739,-796.594 739,-747 739,-747 739,-747 739,-563 739,-536.97 735.321,-506.697 732.953,-489.905"/>
<polygon fill="black" stroke="black" points="736.364,-489.043 731.43,-479.667 729.44,-490.073 736.364,-489.043"/>
<text text-anchor="middle" x="783" y="-634.3" font-family="Times,serif" font-size="14.00">cached_genome</text>
</g>
<!-- p13 -->
<g id="node30" class="node"><title>p13</title>
<ellipse fill="none" stroke="black" cx="968" cy="-692" rx="213.247" ry="18"/>
<text text-anchor="middle" x="968" y="-688.3" font-family="Times,serif" font-size="14.00">modelAndMaskGenome_wf:RepeatMasker_simple_exec</text>
</g>
<!-- p3&#45;&gt;p13 -->
<g id="edge32" class="edge"><title>p3&#45;&gt;p13</title>
<path fill="none" stroke="black" d="M968,-816.368C968,-804.24 968,-752.938 968,-720.431"/>
<polygon fill="black" stroke="black" points="971.5,-720.21 968,-710.21 964.5,-720.21 971.5,-720.21"/>
<text text-anchor="middle" x="1012" y="-786.3" font-family="Times,serif" font-size="14.00">cached_genome</text>
</g>
<!-- p17 -->
<g id="node37" class="node"><title>p17</title>
<ellipse fill="none" stroke="black" cx="1114" cy="-134" rx="157.404" ry="18"/>
<text text-anchor="middle" x="1114" y="-130.3" font-family="Times,serif" font-size="14.00">modelAndMaskGenome_wf:tidy_to_gff3</text>
</g>
<!-- p3&#45;&gt;p17 -->
<g id="edge42" class="edge"><title>p3&#45;&gt;p17</title>
<path fill="none" stroke="black" d="M971.129,-818.312C986.22,-814.988 1051.13,-800.65 1060,-798 1122.25,-779.397 1197,-811.971 1197,-747 1197,-747 1197,-747 1197,-207 1197,-185.361 1180.7,-168.762 1162.55,-156.985"/>
<polygon fill="black" stroke="black" points="1163.93,-153.731 1153.56,-151.59 1160.33,-159.734 1163.93,-153.731"/>
<text text-anchor="middle" x="1241" y="-428.3" font-family="Times,serif" font-size="14.00">cached_genome</text>
</g>
<!-- p18 -->
<g id="node40" class="node"><title>p18</title>
<ellipse fill="none" stroke="black" cx="1247" cy="-60" rx="151.155" ry="18"/>
<text text-anchor="middle" x="1247" y="-56.3" font-family="Times,serif" font-size="14.00">modelAndMaskGenome_wf:soft_mask</text>
</g>
<!-- p3&#45;&gt;p18 -->
<g id="edge46" class="edge"><title>p3&#45;&gt;p18</title>
<path fill="none" stroke="black" d="M971.209,-818.223C974.036,-817.56 978.273,-816.619 982,-816 1053.34,-804.16 1300,-819.311 1300,-747 1300,-747 1300,-747 1300,-133 1300,-114.576 1288.6,-97.7571 1276.38,-85.0167"/>
<polygon fill="black" stroke="black" points="1278.78,-82.4662 1269.17,-78.0052 1273.9,-87.4853 1278.78,-82.4662"/>
<text text-anchor="middle" x="1344" y="-384.3" font-family="Times,serif" font-size="14.00">cached_genome</text>
</g>
<!-- p5 -->
<g id="node10" class="node"><title>p5</title>
<ellipse fill="none" stroke="black" cx="456" cy="-638" rx="246.467" ry="18"/>
<text text-anchor="middle" x="456" y="-634.3" font-family="Times,serif" font-size="14.00">modelAndMaskGenome_wf:RepeatModeler_modelRepeatLibrary</text>
</g>
<!-- p4&#45;&gt;p5 -->
<g id="edge10" class="edge"><title>p4&#45;&gt;p5</title>
<path fill="none" stroke="black" d="M450.885,-727.969C449.055,-711.378 448.761,-685.883 450.003,-666.431"/>
<polygon fill="black" stroke="black" points="453.501,-666.599 450.851,-656.341 446.526,-666.012 453.501,-666.599"/>
</g>
<!-- p4&#45;&gt;p5 -->
<g id="edge12" class="edge"><title>p4&#45;&gt;p5</title>
<path fill="none" stroke="black" d="M461.115,-727.969C462.945,-711.378 463.239,-685.883 461.997,-666.431"/>
<polygon fill="black" stroke="black" points="465.474,-666.012 461.149,-656.341 458.499,-666.599 465.474,-666.012"/>
</g>
<!-- p10 -->
<g id="node13" class="node"><title>p10</title>
<ellipse fill="none" stroke="black" cx="604" cy="-564" rx="3.25" ry="3.5"/>
<text text-anchor="middle" x="719.5" y="-560.3" font-family="Times,serif" font-size="14.00">splitFasta</text>
</g>
<!-- p5&#45;&gt;p10 -->
<g id="edge14" class="edge"><title>p5&#45;&gt;p10</title>
<path fill="none" stroke="black" d="M490.699,-620.119C523.283,-604.268 570.189,-581.449 592.002,-570.837"/>
<polygon fill="black" stroke="black" points="593.827,-573.841 601.288,-566.319 590.764,-567.547 593.827,-573.841"/>
</g>
<!-- p7 -->
<g id="node15" class="node"><title>p7</title>
<ellipse fill="none" stroke="black" cx="223" cy="-564" rx="223.37" ry="18"/>
<text text-anchor="middle" x="223" y="-560.3" font-family="Times,serif" font-size="14.00">modelAndMaskGenome_wf:rename_stockholm_record_ids</text>
</g>
<!-- p5&#45;&gt;p7 -->
<g id="edge16" class="edge"><title>p5&#45;&gt;p7</title>
<path fill="none" stroke="black" d="M402.253,-620.391C367.733,-609.724 322.736,-595.82 286.461,-584.61"/>
<polygon fill="black" stroke="black" points="287.065,-581.134 276.477,-581.525 284.998,-587.822 287.065,-581.134"/>
</g>
<!-- p6 -->
<g id="node17" class="node"><title>p6</title>
<ellipse fill="black" stroke="black" cx="466" cy="-564" rx="1.8" ry="1.8"/>
</g>
<!-- p5&#45;&gt;p6 -->
<g id="edge18" class="edge"><title>p5&#45;&gt;p6</title>
<path fill="none" stroke="black" d="M458.37,-619.937C460.254,-606.37 462.835,-587.787 464.46,-576.089"/>
<polygon fill="black" stroke="black" points="467.973,-576.236 465.882,-565.849 461.04,-575.273 467.973,-576.236"/>
</g>
<!-- p10&#45;&gt;p11 -->
<g id="edge24" class="edge"><title>p10&#45;&gt;p11</title>
<path fill="none" stroke="black" d="M604.81,-560.229C607.427,-551.748 616.462,-525.884 633,-512 658.318,-490.745 697.509,-481.993 717.807,-478.73"/>
<polygon fill="black" stroke="black" points="718.478,-482.171 727.899,-477.323 717.511,-475.238 718.478,-482.171"/>
<text text-anchor="middle" x="679" y="-516.3" font-family="Times,serif" font-size="14.00">splitLibraryFasta</text>
</g>
<!-- p8 -->
<g id="node19" class="node"><title>p8</title>
<ellipse fill="none" stroke="black" cx="223" cy="-476" rx="213.247" ry="18"/>
<text text-anchor="middle" x="223" y="-472.3" font-family="Times,serif" font-size="14.00">modelAndMaskGenome_wf:convert_stockholm_to_fasta</text>
</g>
<!-- p7&#45;&gt;p8 -->
<g id="edge20" class="edge"><title>p7&#45;&gt;p8</title>
<path fill="none" stroke="black" d="M223,-545.597C223,-533.746 223,-517.817 223,-504.292"/>
<polygon fill="black" stroke="black" points="226.5,-504.084 223,-494.084 219.5,-504.084 226.5,-504.084"/>
</g>
<!-- p9 -->
<g id="node21" class="node"><title>p9</title>
<ellipse fill="black" stroke="black" cx="223" cy="-388" rx="1.8" ry="1.8"/>
</g>
<!-- p8&#45;&gt;p9 -->
<g id="edge22" class="edge"><title>p8&#45;&gt;p9</title>
<path fill="none" stroke="black" d="M223,-457.597C223,-440.516 223,-414.965 223,-400.348"/>
<polygon fill="black" stroke="black" points="226.5,-400.095 223,-390.095 219.5,-400.095 226.5,-400.095"/>
</g>
<!-- p12 -->
<g id="node26" class="node"><title>p12</title>
<ellipse fill="none" stroke="black" cx="731" cy="-388" rx="215.172" ry="18"/>
<text text-anchor="middle" x="731" y="-384.3" font-family="Times,serif" font-size="14.00">modelAndMaskGenome_wf:RepeatMasker_parallel_exec</text>
</g>
<!-- p11&#45;&gt;p12 -->
<g id="edge28" class="edge"><title>p11&#45;&gt;p12</title>
<path fill="none" stroke="black" d="M731,-472.139C731,-463.502 731,-437.011 731,-416.227"/>
<polygon fill="black" stroke="black" points="734.5,-416.004 731,-406.004 727.5,-416.004 734.5,-416.004"/>
<text text-anchor="middle" x="790.5" y="-428.3" font-family="Times,serif" font-size="14.00">repeat_masker_tuples</text>
</g>
<!-- p14 -->
<g id="node28" class="node"><title>p14</title>
<ellipse fill="none" stroke="black" cx="975" cy="-328" rx="3.25" ry="3.5"/>
<text text-anchor="middle" x="-421.5" y="-324.3" font-family="Times,serif" font-size="14.00">mix</text>
</g>
<!-- p12&#45;&gt;p14 -->
<g id="edge30" class="edge"><title>p12&#45;&gt;p14</title>
<path fill="none" stroke="black" d="M798.968,-370.844C855.725,-357.352 932.033,-339.213 962.077,-332.072"/>
<polygon fill="black" stroke="black" points="963.009,-335.448 971.929,-329.73 961.39,-328.638 963.009,-335.448"/>
</g>
<!-- p15 -->
<g id="node33" class="node"><title>p15</title>
<ellipse fill="none" stroke="black" cx="982" cy="-282" rx="3.25" ry="3.5"/>
<text text-anchor="middle" x="-851.5" y="-278.3" font-family="Times,serif" font-size="14.00">collectFile</text>
</g>
<!-- p14&#45;&gt;p15 -->
<g id="edge36" class="edge"><title>p14&#45;&gt;p15</title>
<path fill="none" stroke="black" d="M975.417,-324.379C976.294,-318.864 978.382,-305.742 979.973,-295.742"/>
<polygon fill="black" stroke="black" points="983.479,-295.978 981.594,-285.552 976.566,-294.878 983.479,-295.978"/>
</g>
<!-- p13&#45;&gt;p14 -->
<g id="edge34" class="edge"><title>p13&#45;&gt;p14</title>
<path fill="none" stroke="black" d="M970.138,-673.969C972.197,-656.079 975,-627.109 975,-602 975,-602 975,-602 975,-387 975,-371.49 975,-353.647 975,-341.893"/>
<polygon fill="black" stroke="black" points="978.5,-341.659 975,-331.659 971.5,-341.659 978.5,-341.659"/>
</g>
<!-- p16 -->
<g id="node35" class="node"><title>p16</title>
<ellipse fill="none" stroke="black" cx="987" cy="-208" rx="180.526" ry="18"/>
<text text-anchor="middle" x="987" y="-204.3" font-family="Times,serif" font-size="14.00">modelAndMaskGenome_wf:convert_out_to_gff</text>
</g>
<!-- p15&#45;&gt;p16 -->
<g id="edge38" class="edge"><title>p15&#45;&gt;p16</title>
<path fill="none" stroke="black" d="M982.19,-278.265C982.67,-271.354 983.974,-252.578 985.103,-236.316"/>
<polygon fill="black" stroke="black" points="988.608,-236.361 985.81,-226.143 981.625,-235.876 988.608,-236.361"/>
<text text-anchor="middle" x="1018.5" y="-248.3" font-family="Times,serif" font-size="14.00">mergedOuts</text>
</g>
<!-- p16&#45;&gt;p17 -->
<g id="edge40" class="edge"><title>p16&#45;&gt;p17</title>
<path fill="none" stroke="black" d="M1016.78,-190.119C1034.29,-180.189 1056.63,-167.525 1075.48,-156.841"/>
<polygon fill="black" stroke="black" points="1077.44,-159.752 1084.41,-151.775 1073.99,-153.662 1077.44,-159.752"/>
</g>
<!-- p17&#45;&gt;p18 -->
<g id="edge44" class="edge"><title>p17&#45;&gt;p18</title>
<path fill="none" stroke="black" d="M1144.85,-116.301C1163.35,-106.286 1187.07,-93.4417 1207,-82.6529"/>
<polygon fill="black" stroke="black" points="1208.73,-85.6968 1215.86,-77.8581 1205.4,-79.5409 1208.73,-85.6968"/>
</g>
<!-- p19 -->
<g id="node43" class="node"><title>p19</title>
<ellipse fill="black" stroke="black" cx="1247" cy="-2" rx="1.8" ry="1.8"/>
</g>
<!-- p18&#45;&gt;p19 -->
<g id="edge48" class="edge"><title>p18&#45;&gt;p19</title>
<path fill="none" stroke="black" d="M1247,-41.8939C1247,-32.8876 1247,-22.0999 1247,-14.1727"/>
<polygon fill="black" stroke="black" points="1250.5,-13.9957 1247,-3.99575 1243.5,-13.9958 1250.5,-13.9957"/>
</g>
</g>
</svg>
