<?xml version="1.0" encoding="UTF-8" standalone="no"?>
<!DOCTYPE svg PUBLIC "-//W3C//DTD SVG 1.1//EN"
 "http://www.w3.org/Graphics/SVG/1.1/DTD/svg11.dtd">
<!-- Generated by graphviz version 2.42.3 (20191010.1750)
 -->
<!-- Title: dag Pages: 1 -->
<svg width="1462pt" height="790pt"
 viewBox="0.00 0.00 1462.08 790.00" xmlns="http://www.w3.org/2000/svg" xmlns:xlink="http://www.w3.org/1999/xlink">
<g id="graph0" class="graph" transform="scale(1 1) rotate(0) translate(4 786)">
<title>dag</title>
<polygon fill="white" stroke="transparent" points="-4,4 -4,-786 1458.08,-786 1458.08,4 -4,4"/>
<!-- p0 -->
<g id="node1" class="node">
<title>p0</title>
<ellipse fill="black" stroke="black" cx="750.08" cy="-763.4" rx="3.6" ry="3.6"/>
<text text-anchor="middle" x="696.48" y="-770.8" font-family="Times,serif" font-size="14.00">Channel.fromPath</text>
</g>
<!-- p1 -->
<g id="node2" class="node">
<title>p1</title>
<ellipse fill="none" stroke="black" cx="750.08" cy="-690.8" rx="172.77" ry="18"/>
<text text-anchor="middle" x="750.08" y="-687.1" font-family="Times,serif" font-size="14.00">modelAndMaskGenome_wf:checksum_input</text>
</g>
<!-- p0&#45;&gt;p1 -->
<g id="edge1" class="edge">
<title>p0&#45;&gt;p1</title>
<path fill="none" stroke="black" d="M750.08,-759.72C750.08,-753.05 750.08,-735.1 750.08,-719.33"/>
<polygon fill="black" stroke="black" points="753.58,-718.93 750.08,-708.93 746.58,-718.93 753.58,-718.93"/>
<text text-anchor="middle" x="772.08" y="-730.6" font-family="Times,serif" font-size="14.00">genome</text>
</g>
<!-- p3 -->
<g id="node3" class="node">
<title>p3</title>
<ellipse fill="none" stroke="black" cx="738.08" cy="-632.2" rx="3.5" ry="3.5"/>
<text text-anchor="middle" x="722.08" y="-639.5" font-family="Times,serif" font-size="14.00">map</text>
</g>
<!-- p1&#45;&gt;p3 -->
<g id="edge2" class="edge">
<title>p1&#45;&gt;p3</title>
<path fill="none" stroke="black" d="M746.42,-672.51C744.57,-663.81 742.38,-653.46 740.7,-645.56"/>
<polygon fill="black" stroke="black" points="744.12,-644.82 738.62,-635.77 737.27,-646.27 744.12,-644.82"/>
</g>
<!-- p2 -->
<g id="node4" class="node">
<title>p2</title>
<ellipse fill="black" stroke="black" cx="763.08" cy="-632.2" rx="1.8" ry="1.8"/>
</g>
<!-- p1&#45;&gt;p2 -->
<g id="edge3" class="edge">
<title>p1&#45;&gt;p2</title>
<path fill="none" stroke="black" d="M754.05,-672.51C756.17,-663.29 758.71,-652.23 760.56,-644.19"/>
<polygon fill="black" stroke="black" points="764.02,-644.74 762.85,-634.21 757.2,-643.17 764.02,-644.74"/>
</g>
<!-- p4 -->
<g id="node5" class="node">
<title>p4</title>
<ellipse fill="none" stroke="black" cx="1013.08" cy="-559.6" rx="225.56" ry="18"/>
<text text-anchor="middle" x="1013.08" y="-555.9" font-family="Times,serif" font-size="14.00">modelAndMaskGenome_wf:RepeatModeler_BuildDatabase</text>
</g>
<!-- p3&#45;&gt;p4 -->
<g id="edge4" class="edge">
<title>p3&#45;&gt;p4</title>
<path fill="none" stroke="black" d="M741.17,-630.41C760.45,-625.46 865.91,-598.38 939.67,-579.45"/>
<polygon fill="black" stroke="black" points="940.59,-582.82 949.41,-576.95 938.85,-576.04 940.59,-582.82"/>
<text text-anchor="middle" x="919.08" y="-599.4" font-family="Times,serif" font-size="14.00">cached_genome</text>
</g>
<!-- p14 -->
<g id="node14" class="node">
<title>p14</title>
<ellipse fill="none" stroke="black" cx="210.08" cy="-559.6" rx="3.5" ry="3.5"/>
<text text-anchor="middle" x="182.58" y="-566.9" font-family="Times,serif" font-size="14.00">combine</text>
</g>
<!-- p3&#45;&gt;p14 -->
<g id="edge15" class="edge">
<title>p3&#45;&gt;p14</title>
<path fill="none" stroke="black" d="M734.53,-631.04C712.08,-629.99 587.66,-623.77 487.08,-610.6 384.77,-597.2 262.79,-571.89 223.19,-563.43"/>
<polygon fill="black" stroke="black" points="223.87,-560 213.35,-561.32 222.39,-566.84 223.87,-560"/>
<text text-anchor="middle" x="531.08" y="-599.4" font-family="Times,serif" font-size="14.00">cached_genome</text>
</g>
<!-- p16 -->
<g id="node18" class="node">
<title>p16</title>
<ellipse fill="none" stroke="black" cx="509.08" cy="-505.6" rx="214.46" ry="18"/>
<text text-anchor="middle" x="509.08" y="-501.9" font-family="Times,serif" font-size="14.00">modelAndMaskGenome_wf:RepeatMasker_simple_exec</text>
</g>
<!-- p3&#45;&gt;p16 -->
<g id="edge18" class="edge">
<title>p3&#45;&gt;p16</title>
<path fill="none" stroke="black" d="M734.73,-631.1C721.51,-630.6 671.99,-627.63 636.08,-610.6 594.72,-590.99 555.27,-555.05 531.61,-530.99"/>
<polygon fill="black" stroke="black" points="533.97,-528.39 524.5,-523.63 528.93,-533.25 533.97,-528.39"/>
<text text-anchor="middle" x="680.08" y="-599.4" font-family="Times,serif" font-size="14.00">cached_genome</text>
</g>
<!-- p20 -->
<g id="node21" class="node">
<title>p20</title>
<ellipse fill="none" stroke="black" cx="738.08" cy="-131.6" rx="158.67" ry="18"/>
<text text-anchor="middle" x="738.08" y="-127.9" font-family="Times,serif" font-size="14.00">modelAndMaskGenome_wf:tidy_to_gff3</text>
</g>
<!-- p3&#45;&gt;p20 -->
<g id="edge23" class="edge">
<title>p3&#45;&gt;p20</title>
<path fill="none" stroke="black" d="M738.08,-628.51C738.08,-619.13 738.08,-587.08 738.08,-560.6 738.08,-560.6 738.08,-560.6 738.08,-203.6 738.08,-189.25 738.08,-173.27 738.08,-160.11"/>
<polygon fill="black" stroke="black" points="741.58,-159.82 738.08,-149.82 734.58,-159.82 741.58,-159.82"/>
<text text-anchor="middle" x="782.08" y="-374.9" font-family="Times,serif" font-size="14.00">cached_genome</text>
</g>
<!-- p21 -->
<g id="node22" class="node">
<title>p21</title>
<ellipse fill="none" stroke="black" cx="1052.08" cy="-58.6" rx="151.37" ry="18"/>
<text text-anchor="middle" x="1052.08" y="-54.9" font-family="Times,serif" font-size="14.00">modelAndMaskGenome_wf:soft_mask</text>
</g>
<!-- p3&#45;&gt;p21 -->
<g id="edge25" class="edge">
<title>p3&#45;&gt;p21</title>
<path fill="none" stroke="black" d="M741.29,-630.51C744.12,-629.92 748.36,-629.1 752.08,-628.6 847.12,-615.83 871.67,-620.19 967.08,-610.6 1092.2,-598.02 1123.39,-593.9 1248.08,-577.6 1300.62,-570.73 1366.08,-613.59 1366.08,-560.6 1366.08,-560.6 1366.08,-560.6 1366.08,-130.6 1366.08,-93.42 1281.25,-75.71 1199.78,-67.27"/>
<polygon fill="black" stroke="black" points="1199.65,-63.74 1189.35,-66.24 1198.96,-70.71 1199.65,-63.74"/>
<text text-anchor="middle" x="1410.08" y="-331.4" font-family="Times,serif" font-size="14.00">cached_genome</text>
</g>
<!-- p5 -->
<g id="node6" class="node">
<title>p5</title>
<ellipse fill="none" stroke="black" cx="1013.08" cy="-451.6" rx="246.96" ry="18"/>
<text text-anchor="middle" x="1013.08" y="-447.9" font-family="Times,serif" font-size="14.00">modelAndMaskGenome_wf:RepeatModeler_modelRepeatLibrary</text>
</g>
<!-- p4&#45;&gt;p5 -->
<g id="edge5" class="edge">
<title>p4&#45;&gt;p5</title>
<path fill="none" stroke="black" d="M1007.97,-541.57C1006.14,-524.98 1005.84,-499.48 1007.08,-480.03"/>
<polygon fill="black" stroke="black" points="1010.58,-480.2 1007.93,-469.94 1003.61,-479.61 1010.58,-480.2"/>
</g>
<!-- p4&#45;&gt;p5 -->
<g id="edge6" class="edge">
<title>p4&#45;&gt;p5</title>
<path fill="none" stroke="black" d="M1018.2,-541.57C1020.03,-524.98 1020.32,-499.48 1019.08,-480.03"/>
<polygon fill="black" stroke="black" points="1022.55,-479.61 1018.23,-469.94 1015.58,-480.2 1022.55,-479.61"/>
</g>
<!-- p10 -->
<g id="node7" class="node">
<title>p10</title>
<ellipse fill="none" stroke="black" cx="869.08" cy="-378.6" rx="3.5" ry="3.5"/>
<text text-anchor="middle" x="856.96" y="-363.9" font-family="Times,serif" font-size="14.00">splitFasta</text>
</g>
<!-- p5&#45;&gt;p10 -->
<g id="edge7" class="edge">
<title>p5&#45;&gt;p10</title>
<path fill="none" stroke="black" d="M953.05,-434.14C929.01,-425.58 902.1,-413.33 881.08,-396.6 879.22,-395.12 877.51,-393.27 876.02,-391.34"/>
<polygon fill="black" stroke="black" points="878.68,-389 870.41,-382.38 872.75,-392.72 878.68,-389"/>
</g>
<!-- p7 -->
<g id="node8" class="node">
<title>p7</title>
<ellipse fill="none" stroke="black" cx="1114.08" cy="-378.6" rx="223.66" ry="18"/>
<text text-anchor="middle" x="1114.08" y="-374.9" font-family="Times,serif" font-size="14.00">modelAndMaskGenome_wf:rename_stockholm_record_ids</text>
</g>
<!-- p5&#45;&gt;p7 -->
<g id="edge8" class="edge">
<title>p5&#45;&gt;p7</title>
<path fill="none" stroke="black" d="M1037.27,-433.59C1050.42,-424.35 1066.86,-412.79 1081.16,-402.74"/>
<polygon fill="black" stroke="black" points="1083.57,-405.33 1089.74,-396.71 1079.54,-399.6 1083.57,-405.33"/>
</g>
<!-- p6 -->
<g id="node9" class="node">
<title>p6</title>
<ellipse fill="black" stroke="black" cx="846.08" cy="-378.6" rx="1.8" ry="1.8"/>
</g>
<!-- p5&#45;&gt;p6 -->
<g id="edge9" class="edge">
<title>p5&#45;&gt;p6</title>
<path fill="none" stroke="black" d="M933.05,-434.54C906.83,-426.4 878.86,-414.33 857.08,-396.6 854.78,-394.72 852.8,-392.24 851.17,-389.74"/>
<polygon fill="black" stroke="black" points="854.2,-387.96 846.5,-380.68 847.98,-391.17 854.2,-387.96"/>
</g>
<!-- p11 -->
<g id="node12" class="node">
<title>p11</title>
<ellipse fill="black" stroke="black" cx="869.08" cy="-291.6" rx="1.8" ry="1.8"/>
</g>
<!-- p10&#45;&gt;p11 -->
<g id="edge12" class="edge">
<title>p10&#45;&gt;p11</title>
<path fill="none" stroke="black" d="M869.08,-374.77C869.08,-363.79 869.08,-323.62 869.08,-303.8"/>
<polygon fill="black" stroke="black" points="872.58,-303.56 869.08,-293.56 865.58,-303.56 872.58,-303.56"/>
<text text-anchor="middle" x="915.58" y="-331.4" font-family="Times,serif" font-size="14.00">splitLibraryFasta</text>
</g>
<!-- p8 -->
<g id="node10" class="node">
<title>p8</title>
<ellipse fill="none" stroke="black" cx="1114.08" cy="-291.6" rx="214.46" ry="18"/>
<text text-anchor="middle" x="1114.08" y="-287.9" font-family="Times,serif" font-size="14.00">modelAndMaskGenome_wf:convert_stockholm_to_fasta</text>
</g>
<!-- p7&#45;&gt;p8 -->
<g id="edge10" class="edge">
<title>p7&#45;&gt;p8</title>
<path fill="none" stroke="black" d="M1114.08,-360.4C1114.08,-348.76 1114.08,-333.15 1114.08,-319.84"/>
<polygon fill="black" stroke="black" points="1117.58,-319.78 1114.08,-309.78 1110.58,-319.78 1117.58,-319.78"/>
</g>
<!-- p9 -->
<g id="node11" class="node">
<title>p9</title>
<ellipse fill="black" stroke="black" cx="1114.08" cy="-204.6" rx="1.8" ry="1.8"/>
</g>
<!-- p8&#45;&gt;p9 -->
<g id="edge11" class="edge">
<title>p8&#45;&gt;p9</title>
<path fill="none" stroke="black" d="M1114.08,-273.4C1114.08,-256.52 1114.08,-231.26 1114.08,-216.82"/>
<polygon fill="black" stroke="black" points="1117.58,-216.68 1114.08,-206.68 1110.58,-216.68 1117.58,-216.68"/>
</g>
<!-- p12 -->
<g id="node13" class="node">
<title>p12</title>
<ellipse fill="black" stroke="black" cx="198.08" cy="-632.2" rx="3.6" ry="3.6"/>
</g>
<!-- p12&#45;&gt;p14 -->
<g id="edge13" class="edge">
<title>p12&#45;&gt;p14</title>
<path fill="none" stroke="black" d="M198.54,-628.52C200.05,-619.61 204.99,-590.58 207.89,-573.49"/>
<polygon fill="black" stroke="black" points="211.4,-573.73 209.62,-563.28 204.5,-572.56 211.4,-573.73"/>
</g>
<!-- p15 -->
<g id="node16" class="node">
<title>p15</title>
<ellipse fill="none" stroke="black" cx="217.08" cy="-451.6" rx="217.16" ry="18"/>
<text text-anchor="middle" x="217.08" y="-447.9" font-family="Times,serif" font-size="14.00">modelAndMaskGenome_wf:RepeatMasker_parallel_exec</text>
</g>
<!-- p14&#45;&gt;p15 -->
<g id="edge16" class="edge">
<title>p14&#45;&gt;p15</title>
<path fill="none" stroke="black" d="M207.02,-557.28C198.69,-553.49 175.68,-541.68 167.08,-523.6 160.21,-509.15 159.69,-501.79 167.08,-487.6 169.32,-483.3 172.35,-479.42 175.82,-475.95"/>
<polygon fill="black" stroke="black" points="178.15,-478.56 183.46,-469.39 173.59,-473.26 178.15,-478.56"/>
<text text-anchor="middle" x="226.58" y="-501.9" font-family="Times,serif" font-size="14.00">repeat_masker_tuples</text>
</g>
<!-- p13 -->
<g id="node15" class="node">
<title>p13</title>
<ellipse fill="black" stroke="black" cx="223.08" cy="-632.2" rx="3.6" ry="3.6"/>
</g>
<!-- p13&#45;&gt;p14 -->
<g id="edge14" class="edge">
<title>p13&#45;&gt;p14</title>
<path fill="none" stroke="black" d="M222.59,-628.52C220.95,-619.61 215.6,-590.58 212.45,-573.49"/>
<polygon fill="black" stroke="black" points="215.83,-572.48 210.57,-563.28 208.94,-573.75 215.83,-572.48"/>
</g>
<!-- p17 -->
<g id="node17" class="node">
<title>p17</title>
<ellipse fill="none" stroke="black" cx="509.08" cy="-378.6" rx="3.5" ry="3.5"/>
<text text-anchor="middle" x="494.58" y="-385.9" font-family="Times,serif" font-size="14.00">mix</text>
</g>
<!-- p15&#45;&gt;p17 -->
<g id="edge17" class="edge">
<title>p15&#45;&gt;p17</title>
<path fill="none" stroke="black" d="M283.71,-434.4C353.87,-417.34 459.18,-391.73 495.89,-382.81"/>
<polygon fill="black" stroke="black" points="496.96,-386.15 505.85,-380.39 495.31,-379.35 496.96,-386.15"/>
</g>
<!-- p18 -->
<g id="node19" class="node">
<title>p18</title>
<ellipse fill="none" stroke="black" cx="512.08" cy="-291.6" rx="3.5" ry="3.5"/>
<text text-anchor="middle" x="479.58" y="-298.9" font-family="Times,serif" font-size="14.00">collectFile</text>
</g>
<!-- p17&#45;&gt;p18 -->
<g id="edge20" class="edge">
<title>p17&#45;&gt;p18</title>
<path fill="none" stroke="black" d="M509.18,-374.77C509.56,-364.04 510.92,-325.42 511.64,-305.18"/>
<polygon fill="black" stroke="black" points="515.13,-305.3 511.99,-295.18 508.14,-305.05 515.13,-305.3"/>
</g>
<!-- p16&#45;&gt;p17 -->
<g id="edge19" class="edge">
<title>p16&#45;&gt;p17</title>
<path fill="none" stroke="black" d="M509.08,-487.48C509.08,-462.22 509.08,-415.49 509.08,-392.74"/>
<polygon fill="black" stroke="black" points="512.58,-392.45 509.08,-382.45 505.58,-392.45 512.58,-392.45"/>
</g>
<!-- p19 -->
<g id="node20" class="node">
<title>p19</title>
<ellipse fill="none" stroke="black" cx="525.08" cy="-204.6" rx="182.77" ry="18"/>
<text text-anchor="middle" x="525.08" y="-200.9" font-family="Times,serif" font-size="14.00">modelAndMaskGenome_wf:convert_out_to_gff</text>
</g>
<!-- p18&#45;&gt;p19 -->
<g id="edge21" class="edge">
<title>p18&#45;&gt;p19</title>
<path fill="none" stroke="black" d="M512.51,-287.77C513.81,-279.28 517.78,-253.35 520.91,-232.87"/>
<polygon fill="black" stroke="black" points="524.4,-233.18 522.45,-222.77 517.48,-232.12 524.4,-233.18"/>
<text text-anchor="middle" x="553.58" y="-244.4" font-family="Times,serif" font-size="14.00">mergedOuts</text>
</g>
<!-- p19&#45;&gt;p20 -->
<g id="edge22" class="edge">
<title>p19&#45;&gt;p20</title>
<path fill="none" stroke="black" d="M574.21,-187.22C605.75,-176.71 646.85,-163.01 679.99,-151.96"/>
<polygon fill="black" stroke="black" points="681.18,-155.26 689.56,-148.77 678.97,-148.62 681.18,-155.26"/>
</g>
<!-- p20&#45;&gt;p21 -->
<g id="edge24" class="edge">
<title>p20&#45;&gt;p21</title>
<path fill="none" stroke="black" d="M805.83,-115.28C855.62,-104.02 923.36,-88.71 975.18,-76.99"/>
<polygon fill="black" stroke="black" points="976.01,-80.39 985,-74.77 974.47,-73.56 976.01,-80.39"/>
</g>
<!-- p22 -->
<g id="node23" class="node">
<title>p22</title>
<ellipse fill="black" stroke="black" cx="1052.08" cy="-1.8" rx="1.8" ry="1.8"/>
</g>
<!-- p21&#45;&gt;p22 -->
<g id="edge26" class="edge">
<title>p21&#45;&gt;p22</title>
<path fill="none" stroke="black" d="M1052.08,-40.56C1052.08,-31.87 1052.08,-21.56 1052.08,-13.9"/>
<polygon fill="black" stroke="black" points="1055.58,-13.76 1052.08,-3.76 1048.58,-13.76 1055.58,-13.76"/>
</g>
</g>
</svg>
